<svg width="19" height="19" viewBox="0 0 19 19" fill="none" xmlns="http://www.w3.org/2000/svg">
<g clip-path="url(#clip0_594_3493)">
<path d="M18.8003 9.52174C18.8003 14.0468 15.4804 17.7981 11.1465 18.4789V12.1601H13.2538L13.655 9.54592H11.1465V7.8497C11.1465 7.13419 11.4971 6.43757 12.6199 6.43757H13.76V4.2117C13.76 4.2117 12.7249 4.0349 11.7359 4.0349C9.67019 4.0349 8.32077 5.28686 8.32077 7.55277V9.54517H6.02464V12.1594H8.32077V18.4781C3.98766 17.7966 0.666992 14.046 0.666992 9.52174C0.666992 4.51468 4.72659 0.455078 9.73366 0.455078C14.7407 0.455078 18.8003 4.51392 18.8003 9.52174Z" fill="#033A4E"/>
</g>
<defs>
<clipPath id="clip0_594_3493">
<rect width="18.1333" height="18.1333" fill="#033A4E" transform="translate(0.666992 0.400391)"/>
</clipPath>
</defs>
</svg>
