<svg width="31" height="31" viewBox="0 0 31 31" fill="none" xmlns="http://www.w3.org/2000/svg">
<circle cx="15.4667" cy="15.4667" r="15.4667" fill="#D79A4C"/>
<g clip-path="url(#clip0_104_500)">
<path d="M24.5337 15.5217C24.5337 20.0468 21.2138 23.7981 16.8799 24.4789V18.1601H18.9872L19.3884 15.5459H16.8799V13.8497C16.8799 13.1342 17.2305 12.4376 18.3533 12.4376H19.4934V10.2117C19.4934 10.2117 18.4583 10.0349 17.4693 10.0349C15.4036 10.0349 14.0542 11.2869 14.0542 13.5528V15.5452H11.758V18.1594H14.0542V24.4781C9.72106 23.7966 6.40039 20.046 6.40039 15.5217C6.40039 10.5147 10.46 6.45508 15.4671 6.45508C20.4741 6.45508 24.5337 10.5139 24.5337 15.5217Z" fill="white"/>
</g>
<defs>
<clipPath id="clip0_104_500">
<rect width="18.1333" height="18.1333" fill="white" transform="translate(6.40039 6.40039)"/>
</clipPath>
</defs>
</svg>
