<svg xmlns="http://www.w3.org/2000/svg" version="1.1" xmlns:xlink="http://www.w3.org/1999/xlink" xmlns:svgjs="http://svgjs.dev/svgjs" width="1000" height="1000"><g clip-path="url(#SvgjsClipPath1165)"><rect width="1000" height="1000" fill="#000000"></rect><g transform="matrix(5.511811023622047,0,0,5.511811023622047,251.96850393700788,150)"><svg xmlns="http://www.w3.org/2000/svg" version="1.1" xmlns:xlink="http://www.w3.org/1999/xlink" xmlns:svgjs="http://svgjs.dev/svgjs" width="90" height="127"><svg width="90" height="127" viewBox="0 0 90 127" fill="none" xmlns="http://www.w3.org/2000/svg">
<path d="M83.7523 126.405H5.94145C2.67094 126.405 2.76273e-05 123.734 2.76273e-05 120.464V44.8605C-0.0272266 20.1136 20.1136 0 44.8332 0C69.5528 0 89.6937 20.1136 89.6937 44.8605V120.464C89.6937 123.734 87.0228 126.405 83.7523 126.405ZM44.8332 3.05247C21.7762 3.05247 3.02525 21.8034 3.02525 44.8605V120.464C3.02525 122.072 4.33346 123.353 5.9142 123.353H83.725C85.333 123.353 86.614 122.044 86.614 120.464V44.8605C86.614 21.8034 67.8631 3.05247 44.806 3.05247H44.8332Z" fill="white"></path>
<path d="M83.3184 24.9376L41.3196 18.8054C41.3741 18.0423 41.4014 17.2792 41.4014 16.5161C41.4014 11.365 40.3385 6.45926 38.4307 1.98956C37.395 2.12583 36.3593 2.31661 35.3509 2.5619C37.286 6.81356 38.3489 11.5558 38.3489 16.5161C38.3489 35.3488 23.0048 50.6929 4.17211 50.6929C3.27272 50.6929 2.40058 50.6656 1.52844 50.5839V53.6636C2.40058 53.7454 3.27272 53.7726 4.17211 53.7726C5.126 53.7726 6.02539 53.7181 6.95204 53.6636L7.79691 70.2069L7.87867 71.6242L10.9312 71.5424V70.861L9.97725 53.3093C13.5476 52.737 16.9816 51.6741 20.1431 50.1478L34.288 77.4566L34.5606 78.0017L37.3133 76.6935L36.5229 75.1945L22.814 48.7306C27.5835 45.9507 31.6989 42.1623 34.8059 37.6381L41.6739 42.8164L43.1184 43.9066L45.1352 41.59L42.4643 39.5732L36.4411 35.0217C38.7305 31.0426 40.3112 26.6001 40.9926 21.8852L84.8446 28.2627L85.6895 28.3717L85.0899 25.5372L83.2911 24.9376H83.3184Z" fill="white"></path>
<path d="M72.1416 40.6634L53.3362 37.1203C52.7911 37.0113 52.2187 36.9568 51.6464 36.9296L48.8392 32.9777C47.9398 31.6967 46.3591 31.2062 44.8874 31.6695C43.3884 32.1601 42.4345 33.4683 42.4345 35.049L42.489 39.546V41.4538C42.1892 41.8898 41.9166 42.3259 41.6986 42.7892C41.0173 44.0702 40.6084 45.4329 40.5267 46.8501L38.9732 67.5088C38.7279 70.5613 37.9648 73.1777 36.5748 75.14C35.948 76.0394 35.2121 76.8025 34.3127 77.4294C32.8955 78.4378 31.1512 79.0919 29.0526 79.2827C28.5621 79.3372 28.0442 79.3644 27.4991 79.3644V82.4169C29.8703 82.4169 31.9688 82.0081 33.7676 81.2177C38.7279 79.0919 41.5623 74.2134 42.0529 67.6996L43.6337 47.0681C43.7427 45.5692 44.315 44.1247 45.2962 42.871L45.6232 42.4622L45.5687 35.0218C45.5687 34.722 45.7595 34.5857 45.8958 34.5584C46.032 34.5039 46.2773 34.5039 46.4408 34.7492L50.1747 40.0093H50.9923C51.6464 39.9548 52.246 40.0093 52.8183 40.0911L71.6238 43.6341C74.7307 44.2337 76.9656 46.9319 76.9656 50.0934C76.9656 51.2653 76.0117 52.2464 74.8397 52.2464H66.5545L66.1184 52.6825C64.6194 54.1815 62.6026 55.0264 60.4768 55.0536H55.8981V74.813H58.9505V58.1334H60.4768C63.2022 58.1061 65.7641 57.0977 67.8082 55.2989H74.8397C77.7014 55.2989 80.0181 52.9551 80.0181 50.0934C80.0181 45.4601 76.7203 41.481 72.1688 40.6361L72.1416 40.6634Z" fill="white"></path>
<path d="M29.0254 79.3099C24.2559 77.4566 19.2411 75.1672 14.3354 72.36C13.9811 72.142 13.6268 71.9785 13.2725 71.7877C13.1634 71.7332 13.0544 71.6787 12.9727 71.6514C12.6729 71.5152 12.3731 71.3789 12.046 71.2426C11.9097 71.1881 11.7735 71.1336 11.6372 71.1063C11.3919 71.0246 11.1739 70.9428 10.9558 70.861H10.9013C10.7378 70.8065 10.6015 70.7793 10.438 70.7248C10.2745 70.6703 10.1382 70.643 9.97469 70.6158C9.59313 70.534 9.23883 70.4522 8.88452 70.3977C8.80276 70.3977 8.69374 70.3705 8.63924 70.3432C8.39395 70.2887 8.14866 70.2615 7.90337 70.2342C7.90337 70.2342 7.8216 70.2342 7.79435 70.2342C7.19476 70.1797 6.59516 70.1252 5.99557 70.1252C4.49659 70.1252 2.99761 70.316 1.52588 70.6975V73.859C3.02486 73.4502 4.52384 73.2049 5.99557 73.2049C6.5134 73.2049 7.05849 73.2322 7.57632 73.2867C7.7671 73.3139 7.95787 73.3412 8.17591 73.3684H8.28493L8.36669 73.3957C8.66648 73.4502 8.96629 73.5047 9.26608 73.5865H9.32059C9.32059 73.5865 9.53863 73.641 9.62039 73.6682C9.75666 73.7227 9.92019 73.75 10.0565 73.8045C10.2472 73.859 10.438 73.9408 10.6288 73.9953L10.7106 74.0498C10.7106 74.0498 10.8468 74.1043 10.9558 74.1316C11.2011 74.2406 11.4464 74.3496 11.719 74.4586C11.8007 74.4859 11.9097 74.5404 11.9642 74.5676C12.3186 74.7312 12.5911 74.8674 12.8636 75.031C17.2788 77.5656 22.0483 79.8277 27.0904 81.8445C26.7088 82.0898 26.3272 82.3351 25.9457 82.5804L24.7737 83.3435C23.9834 83.8341 23.193 84.3519 22.4026 84.8697L22.0211 85.115L21.3397 85.5511C20.2223 86.2597 19.1049 86.9956 17.9602 87.7587L17.1426 88.3038L16.7065 88.5763C15.9434 89.0941 15.1803 89.5847 14.3899 90.1298C13.8175 90.5114 13.2179 90.8929 12.6456 91.3017L10.7106 92.5827L8.72099 93.9181C6.40439 95.4444 4.03326 97.0796 1.55313 98.7149V102.421C1.88018 102.176 2.23449 101.958 2.58879 101.74C5.28696 99.9141 7.87611 98.1698 10.4108 96.4528C11.0921 96.0167 11.7462 95.5534 12.4003 95.1173C13.0544 94.6813 13.6813 94.2724 14.3354 93.8364C14.9077 93.4276 15.5073 93.046 16.0796 92.6644C16.87 92.1466 17.6331 91.6288 18.3962 91.1382C18.8051 90.8657 19.2411 90.5659 19.6499 90.2933C20.7946 89.5575 21.8848 88.8216 23.0022 88.113C23.3565 87.8677 23.6836 87.6497 24.0651 87.4044C24.8555 86.9138 25.6459 86.396 26.4362 85.8781C26.8178 85.6329 27.2266 85.3876 27.6082 85.1423C28.3713 84.6517 29.1072 84.1884 29.843 83.6978C30.1973 83.4798 30.5244 83.2617 30.8787 83.0437C31.8598 82.4441 32.8137 81.8445 33.7676 81.2449C33.8494 81.1904 33.9312 81.1359 34.0129 81.1086C32.4049 80.5636 30.7697 79.964 29.0799 79.3099H29.0254Z" fill="white"></path>
<path d="M86.5864 68.708C84.2425 68.0539 81.8168 67.7268 79.3095 67.7268C73.259 67.7268 66.5817 69.5528 58.9233 72.9869C57.9422 73.4229 56.9065 73.9135 55.8708 74.4041C41.7804 81.2449 24.3922 93.0187 1.52588 108.39V112.069C1.90744 111.824 2.28899 111.552 2.67055 111.306C3.40642 110.843 4.11503 110.352 4.82364 109.862C41.0173 85.4966 62.8479 70.7793 79.3095 70.7793C81.5716 70.7793 83.6702 71.0518 85.7142 71.5969H85.796C86.5864 71.8422 87.404 72.1147 88.1943 72.4418V69.1713C87.6493 68.9805 87.1314 68.8442 86.6136 68.6807L86.5864 68.708Z" fill="white"></path>
<path d="M88.1671 105.583V111.388C86.4773 109.017 84.9784 106.183 82.5255 102.803C77.8923 96.4255 72.4142 91.438 64.2924 91.438C63.8018 91.438 63.284 91.4652 62.7389 91.4925C57.0973 91.9286 50.7743 96.0985 49.8204 101.985C51.2104 101.495 52.6003 101.277 53.9085 101.277C59.6047 101.277 63.9381 105.637 62.0303 112.369C60.7766 116.784 57.5879 118.365 53.9085 118.365C49.0028 118.365 43.2249 115.64 39.8454 113.241C37.447 111.524 35.4302 109.181 32.8955 107.763C31.0967 106.755 29.1344 106.074 27.1449 106.074C25.7277 106.074 24.3104 106.428 23.0022 107.273C22.9205 107.627 23.1113 107.654 23.3293 107.818C25.3189 109.371 27.1176 110.57 27.4447 113.405C28.0988 118.91 23.7109 121.281 19.1049 121.281C18.1237 121.281 17.1426 121.172 16.1887 120.982C15.2348 120.764 5.50503 116.267 1.49866 114.277V110.816C1.79845 110.925 2.18001 111.116 2.64333 111.306C6.37716 113.051 14.5262 117.248 15.4256 117.466C16.434 117.711 17.7149 117.929 18.9414 117.929C20.7401 117.929 22.4844 117.466 23.4928 115.967C24.8555 113.895 23.3565 111.197 21.3397 110.189C19.541 109.317 16.3522 109.617 18.8323 106.455C20.7946 103.975 23.8471 102.83 26.8996 102.83C27.69 102.83 28.4803 102.912 29.2435 103.048C35.2666 104.22 37.9648 108.526 42.7343 111.497C45.2417 113.078 49.6569 115.176 53.2817 115.176C55.8163 115.176 57.9422 114.168 58.8143 111.252C60.1498 106.809 57.4788 104.329 53.8268 104.329C52.9274 104.329 51.9735 104.466 50.9923 104.793C50.0929 105.092 48.8665 105.883 47.9671 105.883C47.313 105.883 46.8224 105.474 46.6862 104.22C45.8958 95.4989 54.7262 88.7126 62.7117 88.1675C63.284 88.113 63.8018 88.113 64.3469 88.113C74.8125 88.113 81.4353 95.3353 86.9134 103.621C87.3495 104.275 87.7583 104.929 88.1399 105.528L88.1671 105.583Z" fill="white"></path>
</svg></svg></g></g><defs><clipPath id="SvgjsClipPath1165"><rect width="1000" height="1000" x="0" y="0" rx="500" ry="500"></rect></clipPath></defs></svg>