<svg width="1353" height="516" viewBox="0 0 1353 516" fill="none" xmlns="http://www.w3.org/2000/svg">
<path fill-rule="evenodd" clip-rule="evenodd" d="M227.561 0C232.873 1.786 252.771 13.11 258.417 16.122C304.504 40.709 345.511 65.23 383.595 101.535C425.675 141.65 456.654 189.565 457.274 249.439C457.488 270.098 457.305 290.964 457.348 311.694C457.688 344.867 457.839 378.042 457.8 411.217L457.935 473.146C457.951 483.856 458.06 494.78 457.837 505.491C457.775 508.491 457.624 510.099 455.637 512.207C453.52 514.452 451.749 514.707 448.509 514.904C439.717 515.439 430.476 515.251 421.643 515.251L376.546 515.227L233.029 515.245L76.3279 515.257C69.0789 515.26 3.5829 517.572 2.3709 511.262C-1.1961 492.678 0.308909 465.633 0.348909 445.848L0.448907 346.857L0.454904 278.144C0.409904 265.534 -0.126092 248.625 0.738908 236.3C1.86191 220.443 5.1299 204.812 10.4539 189.834C37.5069 114.533 123.33 55.205 191.316 19.235C202.798 13.16 215.932 5.492 227.561 0ZM89.0549 181.292C65.2559 207.613 47.2389 225.678 13.5739 239.424C14.6859 228.635 16.2849 216.58 19.3909 206.115C40.4689 135.114 110.735 83.087 171.716 47.045C189.858 36.322 209.328 26.833 227.61 16.581C316.612 58.946 433.006 131.126 442.106 239.037C404.315 226.32 385.137 205.828 357.197 179.102C357.073 176.28 357.161 174.805 356.264 172.09C353.482 168.606 348.064 169.024 344.503 171.255C343.195 172.075 342.957 174.452 342.935 175.948C342.725 190.315 342.856 204.704 342.876 219.077L342.303 297.457C347.377 300.452 352.532 303.307 357.761 306.02C358.63 290.118 357.907 268.23 357.828 251.917C377.646 280.129 410.483 303.758 441.95 317.418C442.024 326.803 441.95 336.189 441.727 345.572C411.234 344.825 380.355 345.838 349.828 345.413C339.806 345.273 329.317 345.293 319.342 345.914C323.913 363.882 335.013 405.369 333.895 423.65C326.882 423.174 328.384 414.239 327.573 407.966C320.386 352.396 285.744 272.485 227.214 254.362C220.848 256.356 214.851 259.918 209.144 263.073C158.364 291.145 139.665 347.216 130.925 401.138C129.737 408.466 130.196 419.109 128.113 425.79L123.983 426.717L123.109 425.94C122.373 422.069 123.677 415.624 124.089 411.517C126.406 388.429 131.162 368.019 137.671 345.815C124.853 345.05 109.564 345.38 96.5299 345.396C71.5969 345.38 38.0999 344.373 13.9279 345.765C14.4299 337.793 13.9879 326.188 13.9189 317.956C47.7889 304.765 66.0739 285.617 88.8989 259.111L88.8849 309.21C96.4109 304.07 105.669 299.14 113.71 293.993C114.555 277.814 113.786 257.769 113.493 241.314C117.265 246.69 135.387 268.335 140.912 268.562L141.568 267.257C140.708 263.941 130.383 254.481 127.238 251.144C122.918 246.56 117.8 239.566 113.33 235.604L112.869 215.038C120.968 224.695 142.888 248.935 153.423 254.712L154.914 254.072L155.369 252.693C152.862 249.055 140.76 238.492 136.977 234.84C128.275 226.544 120.242 217.572 112.954 208.009C112.875 201.586 112.763 195.609 112.389 189.195C123.98 203.642 147.237 225.292 165.62 231.904C167.285 232.503 167.882 232.369 169.097 231.648C168.897 228.67 167.191 227.958 164.621 226.571C143.264 215.045 128.661 200.361 112.417 182.382L111.769 170.506C109.275 170.246 98.7469 169.03 98.3139 172.897C97.4989 180.17 97.8649 188.323 97.8569 195.723L97.7799 263.631C97.7739 270.45 98.9909 298.609 95.7679 302.263C90.5289 299.22 97.7489 128.159 92.5369 121.961C92.3579 122.118 92.1719 122.266 92.0009 122.431C86.9349 127.337 89.1189 171.751 89.0549 181.292ZM228.826 497.872C231.287 499.531 421.887 498.55 441.037 499.227C435.333 497.663 430.786 495.627 425.324 493.442C370.24 471.404 314.946 449.646 259.283 429.099C252.073 426.438 245.449 423.423 238.072 421.188L229.334 418.5C230.723 421.527 231.918 426.354 231.628 429.718L229.965 431.108C227.536 430.733 228.208 431.206 226.94 429.621C226.084 425.341 227.146 422.213 229.334 418.5L219.608 421.398L219.713 421.852C216.939 423.985 206.418 423.428 202.465 424.104C168.091 429.986 134.269 437.551 99.8869 443.633C71.3699 448.677 42.3859 454.775 14.0129 460.61C13.7709 456.949 13.8639 452.088 13.8249 448.333C80.2679 438.089 152.774 426.279 219.608 421.398L229.334 418.5L238.072 421.188C245.818 421.065 256.175 425.808 264.153 427.84C324.952 443.326 384.103 465.068 443.025 486.728L443.783 487.006C443.741 492.791 443.627 498.575 443.442 504.357C389.035 505.383 331.682 504.409 276.946 504.404L14.8989 504.285C15.3179 499.198 15.1959 494.033 15.1709 488.924C45.6439 477.774 76.3129 467.166 107.164 457.105C119.238 453.063 200.874 424.644 210.292 425.178C209.182 426.656 205.863 427.694 203.978 428.464C144.297 450.966 84.0989 476.093 24.3189 499.046C89.4729 498.142 157.036 498.542 222.281 498.839L224.007 477.164H235.867C236.16 484.225 236.683 489.932 237.48 496.963C234.359 497.026 231.755 496.849 228.826 497.872ZM164.895 421.327L155.815 422.587C155.158 356.699 163.579 299.965 226.914 267.416C282.312 286.899 304.563 369.374 305.059 421.259C301.728 421.061 298.398 420.846 295.07 420.614C292.597 388.602 289.208 359.552 275.488 329.963C266.732 311.077 252.211 288.95 231.974 281.45C218.792 279.264 205.624 290.128 197.339 299.256C168.493 331.031 163.263 380.406 164.895 421.327ZM88.6789 215.308C89.1189 218.226 88.8969 227.688 88.8939 231.095C68.3819 256.971 44.9799 275.924 14.5159 288.697C13.6639 283.841 13.8829 275.105 13.8659 269.85C42.1269 259.629 69.3449 238.031 88.6789 215.308ZM355.369 427.164L345.029 426.886C343.141 396.255 346.477 362.465 384.022 358.289C416.936 352.952 438.026 398.629 434.424 425.75C433.772 430.656 434.665 435.543 430.847 438.957C428.297 439.31 429.437 439.544 427.279 438.404C426.797 413.416 425.594 388.33 402.729 372.666C373.141 356.907 354.698 380.442 354.176 408.744C354.048 415.688 354.441 420.305 355.369 427.164ZM441.971 445.81L441.827 456.68L318.176 433.667C299.93 430.442 283.608 427.106 265.188 424.522C260.447 423.715 255.714 422.868 250.987 421.982C258.193 421.401 262.142 422 269.346 422.83C282.491 424.333 295.608 425.203 308.697 426.658C335.076 429.736 361.417 433.126 387.716 436.827C402.723 438.914 427.53 442.09 441.971 445.81ZM441.906 244.737L441.707 263.984C411.605 256.952 377.501 224.729 357.072 202.891C356.73 197.175 356.865 190.887 356.868 185.12C362.121 189.75 368.131 197.142 373.587 202.229C394.331 221.569 414.994 235.927 441.906 244.737ZM88.8759 251.288C66.8539 279.922 47.6099 297.781 14.0959 312.677C13.6669 309.674 13.9019 297.87 13.9069 294.251C43.7239 283.29 68.5679 262.784 88.6929 238.587C89.0569 240.787 88.8799 248.66 88.8759 251.288ZM231.142 435.852C233.781 438.643 233.103 446.208 233.349 450.211C229.352 450.215 229.136 450.877 226.365 449.022C224.643 445.505 226.026 439.737 226.545 435.489C227.811 435.425 230.457 435.127 231.142 435.852ZM400.343 432.649C399.404 408.571 394.193 395.725 381.663 375.58C382.027 375.607 382.39 375.642 382.752 375.685C399.924 377.857 409.005 418.71 407.017 434.307C405.795 434.342 400.413 434.441 400.343 432.649ZM60.8749 435.558C59.4739 437.214 58.5579 436.944 56.0589 437.508L54.3659 437.198C47.5669 423.515 57.8759 382.248 73.9429 375.584C74.3549 375.734 75.1449 376.259 75.5589 376.51C74.5439 380.736 69.5139 386.04 67.3739 390.788C60.0359 407.074 61.3139 419.113 60.8749 435.558ZM442.017 294.231C441.729 299.637 441.888 306.281 441.888 311.802C416.996 301.522 394.184 284.76 375.573 265.439C369.213 258.836 363.61 251.737 357.362 244.979C357.202 240.69 357.239 236.054 357.188 231.732C376.189 256.535 411.891 284.43 442.017 294.231ZM89.1669 189.673C89.5009 193.985 89.0239 203.33 88.9019 208.034C70.0919 232.388 42.5379 251.576 14.8669 264.387L14.2009 263.727C13.4859 260.413 13.8179 248.703 13.8509 244.624C42.8629 233.784 68.7849 212.593 88.4739 188.977L89.1669 189.673ZM441.89 270.035L441.815 289.184C406.451 274.03 381.552 254.336 357.02 224.404C356.682 219.992 356.839 214.363 356.84 209.854C359.119 211.414 364.806 218.132 366.993 220.419C388.205 242.595 413.209 259.336 441.89 270.035ZM34.6479 439.668C33.4299 440.773 28.9869 441.156 27.0799 441.454C18.9339 407.813 29.7919 362.703 70.1979 358.282C71.6409 358.131 73.0779 358.214 74.5129 358.375C112.644 362.66 115.026 399.359 112.632 428.361C109.537 428.454 107.846 428.667 104.82 429.113C107.621 399.461 99.9329 357.384 60.3419 370.247C57.0529 371.903 53.9829 373.961 51.2019 376.374C37.6759 388.337 33.5409 405.617 33.7359 423.184C33.7979 428.768 35.0309 433.972 34.6479 439.668ZM314.974 421.386C314.038 407.131 311.776 392.998 310.233 378.846C315.098 389.107 318.638 411.496 320.627 423.356C319.708 423.2 315.052 422.573 314.974 421.386ZM225.617 455.243C226.992 454.26 231.57 454.703 233.567 454.746C234.651 457.093 235.168 469.025 235.351 472.151L225.905 472.099L224.972 472.068L224.17 471.212C224.393 465.275 224.419 461.096 225.617 455.243ZM139.226 424.485C137.905 415.097 144.72 386.761 147.393 377.205C148.3 379.813 145.821 416.387 145.621 422.61C143.82 424.246 141.758 424.156 139.226 424.485Z" fill="white"/>
<path d="M189.909 204.634C218.349 223.67 236.367 222.659 264.62 204.553C272.412 219.173 275.315 230.109 285.327 245.968C317.547 297.008 357.223 321.888 416.663 330.801C422.545 331.683 434.399 331.608 438.078 335.353C438.558 337.803 438.766 336.72 437.698 338.748C435.586 338.97 433.466 339.11 431.343 339.167C416.569 339.459 401.486 338.866 386.706 339.313C374.951 339.669 367.97 339.233 357.269 333.789C330.704 320.276 309.308 299.536 287.859 279.273C278.367 270.334 268.513 261.748 259.032 252.725C253.025 247.268 246.957 241.879 240.829 236.559C225.739 240.286 227.21 241.184 211.654 236.726C198.775 249.673 183.317 261.966 168.999 275.527C152.985 290.694 110.001 334.005 88.0329 338.378C80.6939 339.839 25.5049 339.909 19.3909 338.69C18.2439 336.823 18.3179 336.677 18.3479 334.403C18.5649 334.26 60.7619 326.266 67.3579 324.357C113.616 310.966 147.718 279.684 172.155 238.905C178.915 227.625 183.527 215.303 189.909 204.634Z" fill="white"/>
<path d="M336.741 120.609L338.055 122.237C339.243 127.597 338.804 146.781 338.797 153.016L338.757 212.443L338.915 266.861C338.933 273.118 339.33 288.896 338.629 294.659L337.568 295.471C336.96 295.233 336.158 294.982 335.647 294.538C331.637 291.05 333.374 253.097 333.438 245.341C332.027 247.125 330.581 248.881 329.1 250.607C326.097 254.096 313.349 268.303 309.763 268.572L309.23 266.945C309.584 266.007 329.905 243.052 333.189 238.58L333.34 218.122C327.547 226.219 322.03 232.35 315.063 239.375C311.027 243.396 303.626 250.658 298.851 254.021C297.955 254.652 296.728 253.852 295.991 253.457C296.125 249.615 306.467 241.787 309.595 238.701C318.197 230.09 326.113 220.82 333.271 210.975C333.364 204.927 333.737 198.544 334.002 192.468C326.211 201.279 294.325 234.571 281.903 231.813C285.134 226.638 297.585 219.581 303.138 215.348C312.429 208.266 327.482 194.531 333.325 184.676L333.709 184.016C334.884 168.54 332.613 139.587 334.625 123.245C335.457 122.209 336.162 121.331 336.741 120.609Z" fill="white"/>
<path d="M342.526 126.187C362.364 127.123 354.433 128.791 367.397 140.101C368.674 141.215 380.872 140.518 382.143 141.826C380.197 144.187 376.239 146.367 373.52 148.072L380.004 155.888L380.958 156.97L380.02 157.792C374.566 158.158 362.914 155.881 357.144 154.893C356.231 155.298 355.315 155.696 354.395 156.087C351.463 157.333 348.462 158.918 345.447 157.706C342.951 153.277 339.934 130.818 342.526 126.187Z" fill="white"/>
<path d="M97.0329 126.27C101.375 127.399 107.92 126.094 112.561 127.782C118.154 129.817 118.527 138.571 124.051 140.744C128.239 142.391 133.689 139.804 138.19 141.349L138.154 142.453C135.74 145.219 131.957 147.379 128.812 149.399C130.245 151.684 131.922 153.677 133.601 155.787C135.124 156.982 134.661 156.242 135.169 157.985C129.834 158.371 118.878 155.116 113.411 155.172C111.107 155.196 105.571 158.749 101.895 158.695C99.1199 154.773 96.6829 131.866 97.0329 126.27Z" fill="white"/>
<path d="M310.233 378.846C315.098 389.107 318.638 411.496 320.627 423.356C319.708 423.2 315.052 422.573 314.974 421.386C314.038 407.131 311.776 392.998 310.233 378.846Z" fill="white"/>
<path d="M265.188 424.522C260.447 423.715 255.714 422.868 250.987 421.982C258.193 421.401 262.142 422 269.346 422.83C267.902 423.303 266.415 423.663 265.188 424.522Z" fill="white"/>
<path d="M983.232 206.042C1050.31 206.447 1052.71 307.089 1006.72 336.898C998.362 342.316 989.352 343.632 979.612 343.993C931.412 343.189 920.632 288.914 935.422 252.271C936.282 250.138 939.972 242.389 939.572 240.608C937.182 239.373 936.692 239.255 934.872 237.353C934.752 229.518 950.442 216.824 957.022 213.262C966.152 208.318 973.062 206.459 983.232 206.042ZM988.972 329.043C1019.39 317.758 1025.89 270.996 1015.59 243.647C1008.28 224.246 996.432 218.881 976.842 220.104C972.042 221.371 967.982 222.062 964.422 225.625C964.282 228.436 964.452 230.798 962.792 233.163C949.372 252.347 943.572 277.666 948.342 300.702C952.562 321.026 967.842 334.345 988.972 329.043Z" fill="white"/>
<path d="M694.701 202.164C703.345 201.607 707.386 202.036 710.346 211.389C713.539 221.479 715.687 231.962 717.905 242.31L726.949 283.603C733.323 282.529 741.264 280.19 746.641 284.833C747.63 287.151 747.551 286.113 746.797 288.642C742.053 293.962 735.237 293.861 728.424 294.462C732.244 310.354 737.449 326.396 741.73 342.099C742.227 343.92 738.314 348.023 736.44 348.113C723.149 348.752 716.657 307.551 714.46 297.201C707.139 298.779 699.797 300.254 692.436 301.626L670.572 305.83C667.242 318.917 664.584 332.209 661.715 345.715C662.145 353.616 648.637 357.595 646.368 350.672C643.465 341.816 652.585 315.039 655.052 307.71C649.351 309.461 641.32 312.506 636.091 308.135C633.154 299.509 652.478 296.769 657.547 295.851C662.245 278.369 667.193 260.954 672.388 243.613C676.901 228.581 680.797 209.643 694.701 202.164ZM673.351 293.239L688.524 290.13C696.178 288.863 704.54 287.302 712.202 286.616C706.301 268.477 701.09 238.473 695.057 222.642C687.888 237.741 678.81 275.749 673.351 293.239Z" fill="white"/>
<path d="M812.605 201.43C823.927 200.096 826.394 216.592 828.349 224.458C832.611 241.61 835.134 259.925 840.233 276.799C845.458 275.608 857.055 272.561 858.647 279.852C856.3 286.074 847.668 286.294 841.976 287.134C842.709 289.186 845.341 298.767 845.632 301.057C846.606 308.718 857.409 339.172 855.228 343.816C846.488 353.396 840.035 342.964 837.956 334.517C834.246 319.439 830.572 304.351 826.839 289.281C821.082 290.733 815.249 291.706 809.407 292.765C802.972 294.378 794.182 295.699 787.492 296.885C785.623 304.848 778.313 344.066 774.715 347.173C752.847 356.464 768.945 308.507 771.21 299.771C766.639 300.557 746.259 304.765 752.962 293.031C756.964 289.406 768.416 288.451 774.364 287.507C779.217 266.714 789.993 227.109 800.173 207.747C802.398 203.515 808.079 202.179 812.605 201.43ZM790.02 284.417C794.707 283.297 799.204 282.175 803.969 281.39L824.406 278.404C821.997 269.145 812.527 226.586 809.305 221.301C801.178 242.479 797.136 264.168 790.02 284.417Z" fill="white"/>
<path d="M1241.42 188.438C1245.32 188.105 1247.85 187.384 1250.8 190.4C1251.93 192.837 1251.84 195.503 1251.82 198.149C1251.53 225.394 1249 252.923 1247.98 280.187C1247.55 291.539 1248.71 316.754 1246.37 326.307C1245.89 328.235 1244.74 329.734 1242.95 330.622C1241.3 331.442 1239.52 331.217 1237.86 330.522C1222.69 324.153 1196.76 259.155 1190.19 242.533C1188.83 272.783 1182.95 304.571 1184.5 335.028C1184.64 337.787 1185.75 342.974 1183.01 344.885C1177.21 348.924 1172.35 341.401 1169.95 337.089C1164.24 319.392 1171.59 258.66 1174.13 237.649C1175.3 225.839 1175.94 214.293 1177.88 202.583C1179.68 191.718 1192.25 191.026 1193.96 198.758C1201.66 233.513 1216.24 268.794 1234.03 299.652L1233.98 294.172C1233.85 264.678 1236.15 234.489 1237.06 204.966C1237.24 199.091 1237.11 192.789 1241.42 188.438Z" fill="white"/>
<path d="M1064.71 210.292C1068.7 210.067 1074.97 211.511 1074.36 217.526C1071.39 237.055 1059.15 329.064 1093.52 328.168C1124.24 327.367 1129.2 247.168 1130.28 224.369C1130.67 215.951 1135.14 211.588 1142.76 211.195C1145.99 211.028 1149.93 214.841 1150.55 218.163C1150.38 234.131 1147.94 253.956 1147.8 269.655C1146.73 289.353 1145.6 314.489 1149.41 334.032C1151.59 345.266 1140.7 346.549 1136.69 341.834C1131.23 335.41 1129.91 314.929 1130.33 306.548C1129.11 309.253 1127.82 311.928 1126.47 314.572C1116.38 333.829 1099.52 350.832 1077.48 338.223C1045.06 319.675 1051.68 264.491 1053.69 233.229C1054.07 227.246 1054.18 219.501 1056.59 214.143C1057.72 211.636 1062.24 210.816 1064.71 210.292Z" fill="white"/>
<path d="M1331.39 200.766C1336.52 199.785 1346.44 200.834 1344.34 208.203C1338.95 214.517 1323.24 215.675 1314.94 217.215C1306.41 218.826 1297.96 220.822 1289.61 223.196C1289.07 238.504 1288.06 253.792 1286.59 269.038C1289.45 268.163 1292.34 267.332 1295.23 266.545C1303.02 264.419 1311 262.581 1319.08 260.878C1323.84 259.875 1339.05 256.377 1341.05 263.442C1341.75 265.987 1339.49 270.702 1336.71 271.178C1320.26 273.996 1302.21 279.394 1285.91 281.827C1285.57 295.17 1282.58 310.76 1283.95 323.7C1285.26 336.146 1308.5 328.901 1315.67 327.053C1325.62 324.263 1334.95 320.081 1344.94 317.634C1349.08 316.621 1352.3 318.297 1352.96 322.632C1350.73 335.129 1283.18 352.977 1276.41 342.735C1263.38 323.026 1273.18 273.23 1272.45 249.179C1272.2 240.943 1274.56 231.208 1274.41 223.195C1272.89 220.991 1272.41 220.432 1271.66 217.889C1273.35 208.699 1321.69 201.541 1331.39 200.766Z" fill="white"/>
<path d="M542.375 188.413C547.987 187.898 556.353 189.053 555.936 196.609C555.249 209.048 553.669 221.548 552.578 233.98C550.698 256.195 549.048 278.429 547.628 300.678C546.975 311.464 545.847 325.355 545.971 335.943C565.466 331.959 609.616 318.06 628.399 320.251C631.049 320.56 632.994 321.17 634.663 323.326C635.938 328.758 632.37 330.591 628.09 332.195C611.739 335.238 595.478 338.745 579.327 342.713C568.751 345.282 558.266 348.126 547.686 351.318C542.589 353.994 527.173 350.383 528.489 343.143C531.266 327.857 529.625 312.02 529.956 296.19C530.714 270.895 532.289 245.632 534.68 220.44C535.58 211.029 535.549 194.049 542.375 188.413Z" fill="white"/>
<path d="M920.572 198.094C931.682 200.49 934.322 202.675 929.122 213.962C920.832 231.946 909.952 248.594 898.932 264.989C898.802 282.976 898.812 327.72 895.562 347.511C895.352 348.762 891.992 349.817 890.162 350.056C883.072 348.233 883.098 336.865 882.827 331.095C881.929 311.988 881.351 293.061 881.741 273.936C880.538 271.365 874.431 263.998 871.613 258.367C864.21 243.431 852.037 222.803 849.532 206.489C848.796 201.695 861.101 196.14 866.723 210.473C871.98 223.871 879.592 243.255 887.332 255.233C894.522 243.967 901.182 232.547 907.712 220.899C911.152 214.762 915.422 202.118 920.572 198.094Z" fill="white"/>
<rect x="536.842" y="456.095" width="98" height="7" rx="3.5" fill="white"/>
<rect x="1236.84" y="456.095" width="98" height="7" rx="3.5" fill="white"/>
<path d="M718.963 456.113C720.127 456.875 721.11 457.778 721.912 458.821C722.755 459.824 723.417 461.068 723.898 462.553C724.42 464.198 724.681 465.863 724.681 467.548C724.721 469.193 724.42 470.738 723.778 472.183C723.176 473.587 722.193 474.831 720.829 475.914C719.505 476.957 717.759 477.7 715.592 478.141C714.429 478.422 713.065 478.643 711.5 478.803C709.935 478.964 708.531 479.044 707.287 479.044C705.722 479.084 704.097 479.084 702.412 479.044C700.766 479.044 699.161 478.883 697.597 478.562C696.914 478.362 696.413 478.021 696.092 477.539C695.811 477.018 695.61 476.436 695.49 475.794C695.33 475.433 695.249 475.072 695.249 474.71V440.524C695.249 439.401 695.47 438.538 695.911 437.936C696.393 437.294 697.015 436.833 697.777 436.552C698.539 436.231 699.402 436.05 700.365 436.01C701.328 435.93 702.331 435.89 703.375 435.89C704.177 435.89 704.979 435.89 705.782 435.89C706.625 435.85 707.467 435.85 708.31 435.89C709.634 435.93 710.998 436.05 712.403 436.251C713.847 436.411 715.211 436.732 716.495 437.214C717.097 437.415 717.739 437.695 718.421 438.057C719.103 438.378 719.645 438.779 720.046 439.26C721.33 440.424 722.273 441.788 722.875 443.353C723.517 444.878 723.798 446.443 723.718 448.048C723.637 449.612 723.196 451.117 722.394 452.562C721.631 454.006 720.488 455.19 718.963 456.113ZM708.43 472.062C709.674 471.982 710.938 471.841 712.222 471.641C713.506 471.44 714.389 471.059 714.87 470.497C715.392 469.855 715.753 469.113 715.954 468.27C716.194 467.388 716.255 466.505 716.134 465.622C716.054 464.699 715.793 463.837 715.352 463.034C714.95 462.192 714.409 461.529 713.727 461.048C712.804 460.326 711.74 459.864 710.537 459.664C709.333 459.423 708.149 459.303 706.986 459.303C706.424 459.303 705.902 459.323 705.421 459.363C704.979 459.363 704.578 459.423 704.217 459.543C703.896 459.624 703.655 459.804 703.495 460.085C703.334 460.366 703.254 460.787 703.254 461.349C703.334 462.392 703.334 463.435 703.254 464.479C703.174 465.522 703.134 466.525 703.134 467.488C703.134 468.05 703.114 468.672 703.074 469.354C703.074 469.996 703.294 470.537 703.736 470.979C704.177 471.42 704.819 471.721 705.662 471.882C706.504 472.042 707.427 472.102 708.43 472.062ZM709.634 443.172C708.39 443.132 707.347 443.112 706.504 443.112C705.702 443.072 705.06 443.132 704.578 443.293C704.137 443.413 703.816 443.714 703.615 444.196C703.455 444.637 703.395 445.319 703.435 446.242C703.435 447.004 703.415 447.767 703.375 448.529C703.375 449.251 703.375 449.974 703.375 450.696C703.375 451.498 703.635 452.1 704.157 452.501C704.679 452.863 705.321 453.083 706.083 453.163C706.885 453.244 707.708 453.244 708.551 453.163C709.433 453.083 710.196 452.983 710.838 452.863C712.282 452.622 713.386 452.14 714.148 451.418C714.95 450.656 715.412 449.552 715.532 448.108C715.693 446.302 715.211 445.058 714.088 444.376C713.004 443.654 711.52 443.253 709.634 443.172ZM736.997 442.932L736.877 452.381H739.284C740.93 452.341 742.394 452.321 743.678 452.321C744.962 452.321 746.387 452.341 747.951 452.381H748.252C748.734 452.381 749.195 452.401 749.637 452.441C750.118 452.441 750.58 452.441 751.021 452.441C751.502 452.481 751.964 452.562 752.405 452.682C752.847 452.762 753.288 452.863 753.729 452.983C754.411 453.224 754.973 453.585 755.415 454.066C755.816 454.588 756.016 455.17 756.016 455.812C756.016 456.012 756.016 456.253 756.016 456.534C756.016 456.775 755.976 456.995 755.896 457.196C755.816 457.637 755.555 458.039 755.114 458.4C754.913 458.681 754.532 458.881 753.97 459.002C753.448 459.162 752.927 459.262 752.405 459.303C751.843 459.423 751.282 459.483 750.72 459.483H747.891L736.757 459.543L736.636 471.34L748.613 471.46H751.442C751.763 471.46 752.064 471.46 752.345 471.46C752.626 471.46 752.887 471.48 753.127 471.52C753.448 471.601 753.729 471.661 753.97 471.701C754.251 471.701 754.512 471.741 754.753 471.821C755.234 471.982 755.635 472.203 755.956 472.483C756.357 472.885 756.618 473.306 756.739 473.747C756.779 473.948 756.799 474.169 756.799 474.409C756.839 474.61 756.839 474.831 756.799 475.072C756.799 475.713 756.598 476.295 756.197 476.817C755.715 477.379 755.154 477.74 754.512 477.9C753.669 478.261 752.746 478.442 751.743 478.442C751.302 478.482 750.84 478.502 750.359 478.502C749.877 478.502 749.416 478.522 748.975 478.562H748.613C745.484 478.643 742.234 478.643 738.863 478.562C738.061 478.562 737.419 478.542 736.937 478.502C736.456 478.502 736.014 478.502 735.613 478.502C735.252 478.502 734.871 478.502 734.47 478.502C734.068 478.502 733.547 478.502 732.905 478.502C731.982 478.582 731.219 478.422 730.618 478.021C730.176 477.74 729.835 477.359 729.594 476.877C729.474 476.757 729.414 476.636 729.414 476.516C729.374 476.436 729.334 476.376 729.293 476.335C729.253 476.295 729.213 476.235 729.173 476.155C729.093 475.954 729.033 475.754 728.993 475.553C728.952 475.312 728.932 475.092 728.932 474.891C728.892 474.69 728.852 474.49 728.812 474.289C728.812 474.088 728.792 473.888 728.752 473.687V472.724C728.752 472.564 728.752 472.403 728.752 472.243C728.792 472.082 728.812 471.922 728.812 471.761V467.067L728.932 458.4V450.395C728.932 448.95 728.932 447.666 728.932 446.543C728.972 445.419 729.013 444.196 729.053 442.871V442.571C729.093 442.129 729.113 441.728 729.113 441.367C729.153 440.966 729.173 440.564 729.173 440.163C729.213 439.361 729.434 438.578 729.835 437.816C729.996 437.495 730.156 437.214 730.317 436.973C730.517 436.732 730.778 436.532 731.099 436.371C731.701 436.01 732.323 435.83 732.965 435.83C733.286 435.83 733.527 435.85 733.687 435.89V435.83C734.409 435.83 734.991 435.83 735.433 435.83C735.874 435.83 736.295 435.83 736.696 435.83C737.138 435.83 737.599 435.83 738.081 435.83C738.562 435.79 739.224 435.769 740.067 435.769C741.672 435.729 743.197 435.709 744.641 435.709C746.086 435.709 747.57 435.729 749.095 435.769H749.336C749.777 435.81 750.238 435.83 750.72 435.83C751.201 435.83 751.663 435.85 752.104 435.89C752.546 435.89 752.987 435.95 753.428 436.07C753.87 436.151 754.311 436.271 754.753 436.432C755.435 436.632 755.996 436.973 756.438 437.455C756.799 438.016 756.979 438.578 756.979 439.14C756.979 439.381 756.979 439.621 756.979 439.862C756.979 440.063 756.939 440.263 756.859 440.464C756.819 440.865 756.578 441.287 756.137 441.728C755.976 441.808 755.796 441.909 755.595 442.029C755.435 442.149 755.234 442.25 754.993 442.33C754.753 442.41 754.492 442.47 754.211 442.51C753.97 442.51 753.729 442.53 753.489 442.571C753.168 442.651 752.867 442.691 752.586 442.691C752.345 442.691 752.064 442.691 751.743 442.691H749.035L736.997 442.751V442.932ZM794.165 438.297C794.205 438.498 794.205 438.699 794.165 438.899C794.165 439.1 794.104 439.32 793.984 439.561C793.824 440.123 793.643 440.625 793.442 441.066C793.202 441.628 792.901 442.109 792.54 442.51C792.379 442.751 792.219 442.992 792.058 443.233C791.938 443.433 791.817 443.634 791.697 443.834L790.914 444.858L783.211 455.992L781.826 457.738V473.747C781.746 473.948 781.706 474.149 781.706 474.349C781.706 474.55 781.686 474.771 781.646 475.011C781.565 475.212 781.505 475.413 781.465 475.613C781.425 475.774 781.365 475.954 781.285 476.155C781.204 476.315 781.164 476.436 781.164 476.516C781.124 476.596 781.084 476.656 781.044 476.697C781.044 476.737 781.024 476.797 780.984 476.877C780.743 477.278 780.402 477.639 779.96 477.96C779.078 478.402 778.075 478.502 776.951 478.261C776.309 478.181 775.828 477.981 775.507 477.66C775.306 477.539 775.146 477.399 775.025 477.238C774.905 477.078 774.784 476.897 774.664 476.697C774.584 476.456 774.504 476.235 774.423 476.034C774.343 475.834 774.283 475.633 774.243 475.433C774.162 475.232 774.122 475.051 774.122 474.891C774.122 474.69 774.122 474.51 774.122 474.349V457.918L772.798 455.872L764.974 444.797L764.312 443.714C764.071 443.353 763.77 442.932 763.409 442.45C763.088 442.009 762.807 441.527 762.566 441.006C762.406 440.765 762.266 440.524 762.145 440.283C762.065 440.003 761.985 439.722 761.904 439.441C761.784 439.04 761.764 438.638 761.844 438.237C761.965 437.715 762.205 437.274 762.566 436.913C762.968 436.552 763.389 436.271 763.83 436.07C764.392 435.669 765.034 435.509 765.756 435.589C766.198 435.589 766.579 435.669 766.9 435.83C767.221 435.99 767.542 436.171 767.863 436.371C768.224 436.652 768.565 436.953 768.886 437.274C769.247 437.595 769.568 437.936 769.849 438.297C770.17 438.699 770.471 439.08 770.752 439.441C771.033 439.762 771.314 440.143 771.594 440.584L771.775 440.825C772.738 442.109 773.641 443.353 774.483 444.557C775.326 445.72 776.209 446.984 777.132 448.349C777.212 448.429 777.332 448.589 777.493 448.83C777.653 449.071 777.834 449.352 778.034 449.673C778.195 449.392 778.335 449.151 778.456 448.95C778.616 448.71 778.737 448.549 778.817 448.469C779.74 447.105 780.623 445.821 781.465 444.617C782.308 443.413 783.211 442.169 784.174 440.885L784.294 440.645C784.615 440.283 784.896 439.922 785.137 439.561C785.417 439.16 785.718 438.759 786.039 438.357C786.561 437.635 787.263 437.013 788.146 436.492C788.788 436.05 789.45 435.769 790.132 435.649C790.894 435.569 791.556 435.729 792.118 436.131C792.359 436.291 792.58 436.432 792.78 436.552C793.021 436.672 793.222 436.813 793.382 436.973C793.703 437.334 793.964 437.776 794.165 438.297ZM809.701 437.154C812.39 436.151 814.817 435.709 816.984 435.83C819.191 435.95 821.157 436.512 822.882 437.515C824.608 438.478 826.072 439.782 827.276 441.427C828.52 443.072 829.523 444.918 830.285 446.964C830.887 448.489 831.348 450.094 831.669 451.779C831.99 453.464 832.171 455.15 832.211 456.835C832.291 458.48 832.231 460.105 832.031 461.71C831.87 463.315 831.589 464.8 831.188 466.164C830.947 467.087 830.666 467.929 830.345 468.692C830.024 469.454 829.643 470.216 829.202 470.979C828.199 472.704 826.895 474.109 825.29 475.192C823.725 476.275 821.999 477.038 820.114 477.479C818.83 477.8 817.506 477.96 816.141 477.96C814.777 477.92 813.433 477.74 812.109 477.419C810.785 477.058 809.501 476.556 808.257 475.914C807.053 475.232 805.95 474.389 804.947 473.386C803.703 472.183 802.679 470.798 801.877 469.233C801.074 467.628 800.453 465.963 800.011 464.238C799.57 462.472 799.289 460.707 799.169 458.941C799.048 457.176 799.048 455.491 799.169 453.886C799.289 452.401 799.57 450.816 800.011 449.131C800.493 447.446 801.175 445.821 802.058 444.256C802.94 442.691 804.004 441.287 805.247 440.043C806.531 438.759 808.016 437.796 809.701 437.154ZM823.785 462.914C824.267 461.028 824.467 458.901 824.387 456.534C824.307 454.167 823.925 451.94 823.243 449.853C822.802 448.569 822.24 447.446 821.558 446.483C820.916 445.48 820.134 444.717 819.211 444.196C818.328 443.674 817.285 443.413 816.081 443.413C814.877 443.413 813.533 443.774 812.049 444.497C811.166 444.938 810.403 445.54 809.761 446.302C809.16 447.065 808.658 447.927 808.257 448.89C807.896 449.853 807.595 450.856 807.354 451.9C807.153 452.943 807.033 453.946 806.993 454.909C806.913 455.952 806.893 457.056 806.933 458.219C806.973 459.343 807.093 460.486 807.294 461.65C807.535 462.773 807.856 463.857 808.257 464.9C808.658 465.903 809.2 466.806 809.882 467.608C810.925 468.812 812.129 469.655 813.493 470.136C814.897 470.578 816.282 470.638 817.646 470.317C819.853 469.835 821.538 468.371 822.702 465.923C823.183 465.04 823.544 464.037 823.785 462.914ZM869.877 473.747C869.837 474.43 869.736 475.152 869.576 475.914C869.456 476.676 869.074 477.298 868.432 477.78C867.951 478.181 867.409 478.422 866.807 478.502C866.205 478.582 865.604 478.542 865.002 478.382C864.44 478.261 863.898 478.061 863.377 477.78C862.855 477.459 862.434 477.078 862.113 476.636C860.749 474.951 859.485 473.226 858.321 471.46C857.198 469.655 856.054 467.849 854.89 466.043L849.835 458.4C849.153 457.316 848.43 456.113 847.668 454.789C846.906 453.424 846.123 452.16 845.321 450.997L845.14 473.988V474.53C845.14 475.172 845.02 475.814 844.779 476.456C844.578 477.058 844.217 477.579 843.696 478.021C843.294 478.342 842.773 478.562 842.131 478.683C841.128 478.883 840.285 478.823 839.603 478.502C838.961 478.181 838.439 477.74 838.038 477.178C837.677 476.616 837.416 475.974 837.256 475.252C837.135 474.49 837.115 473.747 837.195 473.025V472.002L837.316 467.307L837.376 458.58C837.416 457.296 837.436 455.992 837.436 454.668C837.436 453.304 837.436 451.92 837.436 450.515C837.396 448.79 837.396 446.964 837.436 445.038C837.516 443.112 837.597 441.307 837.677 439.621C837.757 438.699 837.978 437.916 838.339 437.274C838.499 436.712 838.921 436.231 839.603 435.83C840.044 435.549 840.606 435.368 841.288 435.288C842.01 435.208 842.632 435.228 843.154 435.348C843.355 435.428 843.555 435.529 843.756 435.649C843.956 435.729 844.157 435.83 844.358 435.95C844.558 436.111 844.739 436.271 844.899 436.432C845.1 436.592 845.281 436.773 845.441 436.973C845.642 437.174 845.822 437.394 845.983 437.635C846.143 437.836 846.304 438.036 846.464 438.237C846.585 438.478 846.705 438.699 846.825 438.899C846.946 439.1 847.086 439.3 847.247 439.501L847.909 440.464L861.812 462.372V458.4C861.812 457.116 861.792 455.812 861.752 454.488C861.752 453.123 861.732 451.719 861.691 450.274C861.691 448.589 861.691 446.784 861.691 444.858C861.732 442.932 861.792 441.126 861.872 439.441C861.872 438.759 862.073 437.976 862.474 437.094C862.675 436.572 863.016 436.151 863.497 435.83C863.979 435.509 864.52 435.288 865.122 435.168C865.724 435.047 866.326 435.047 866.928 435.168C867.53 435.288 868.051 435.529 868.493 435.89C868.613 436.01 868.733 436.151 868.854 436.311C868.974 436.472 869.074 436.652 869.155 436.853C869.355 437.374 869.476 437.836 869.516 438.237C869.636 438.799 869.696 439.3 869.696 439.742C869.696 444.757 869.696 449.873 869.696 455.089C869.736 460.306 869.777 465.422 869.817 470.437C869.817 470.999 869.837 471.561 869.877 472.122C869.917 472.644 869.917 473.186 869.877 473.747ZM906.41 454.126C906.491 455.451 906.471 456.815 906.35 458.219C906.27 459.624 906.129 460.988 905.929 462.312C905.528 464.599 904.785 466.826 903.702 468.993C902.619 471.159 901.034 473.005 898.947 474.53C896.78 476.135 894.313 477.238 891.544 477.84C888.776 478.402 886.027 478.743 883.299 478.863C882.376 478.944 881.433 478.964 880.47 478.923C879.547 478.923 878.644 478.823 877.761 478.623C877.039 478.502 876.497 478.281 876.136 477.96C875.936 477.84 875.775 477.68 875.655 477.479C875.534 477.278 875.434 477.078 875.354 476.877C875.234 476.676 875.133 476.476 875.053 476.275C875.013 476.034 874.953 475.794 874.872 475.553C874.832 475.352 874.792 475.172 874.752 475.011C874.752 474.811 874.752 474.63 874.752 474.47V440.103C874.752 439.822 874.752 439.561 874.752 439.32C874.752 439.08 874.792 438.839 874.872 438.598C874.953 438.036 875.073 437.575 875.234 437.214C875.394 436.732 875.615 436.391 875.896 436.191C876.136 435.99 876.377 435.85 876.618 435.769C876.859 435.649 877.079 435.549 877.28 435.469C877.521 435.388 877.761 435.388 878.002 435.469C878.283 435.509 878.584 435.448 878.905 435.288L888.956 435.529C891.604 435.609 893.972 436.231 896.058 437.394C898.145 438.518 899.93 439.962 901.415 441.728C902.899 443.493 904.063 445.48 904.906 447.686C905.748 449.853 906.25 452 906.41 454.126ZM895.216 465.562C895.978 464.358 896.54 462.974 896.901 461.409C897.262 459.844 897.422 458.259 897.382 456.654C897.342 455.009 897.122 453.424 896.72 451.9C896.319 450.335 895.757 448.95 895.035 447.747C894.473 446.864 893.751 446.142 892.868 445.58C891.986 445.018 891.003 444.597 889.919 444.316C888.836 443.995 887.672 443.774 886.428 443.654C885.225 443.534 884.041 443.473 882.877 443.473C882.917 444.637 882.937 445.76 882.937 446.844C882.937 447.927 882.937 449.071 882.937 450.274C882.897 451.719 882.877 453.123 882.877 454.488C882.877 455.852 882.877 457.176 882.877 458.46V470.738C884.121 470.698 885.305 470.638 886.428 470.557C887.592 470.437 888.695 470.196 889.739 469.835C890.822 469.474 891.805 468.973 892.688 468.331C893.611 467.648 894.453 466.726 895.216 465.562ZM961.193 438.658C961.233 438.939 961.253 439.2 961.253 439.441C961.253 439.682 961.253 439.922 961.253 440.163V442.631L960.892 473.868V474.47C960.892 474.71 960.832 475.072 960.711 475.553C960.671 475.754 960.611 475.974 960.531 476.215C960.45 476.416 960.37 476.636 960.29 476.877C960.089 477.359 959.808 477.72 959.447 477.96C959.126 478.281 958.605 478.502 957.882 478.623C956.759 478.863 955.736 478.763 954.813 478.322C954.291 478.001 953.93 477.599 953.729 477.118C953.649 477.038 953.569 476.917 953.489 476.757C953.489 476.676 953.449 476.556 953.368 476.396C953.288 476.195 953.228 475.994 953.188 475.794C953.148 475.553 953.108 475.312 953.067 475.072C953.067 474.871 953.047 474.67 953.007 474.47C953.007 474.269 952.987 474.068 952.947 473.868C952.867 473.667 952.827 473.507 952.827 473.386C952.827 473.226 952.827 473.045 952.827 472.845C952.907 472.684 952.947 472.383 952.947 471.942L953.007 467.187L953.067 459.603H949.817L937.599 459.664L937.479 473.868V474.47C937.479 474.71 937.419 475.072 937.298 475.553C937.258 475.754 937.198 475.974 937.118 476.215C937.038 476.416 936.957 476.636 936.877 476.877C936.677 477.359 936.396 477.72 936.035 477.96C935.714 478.281 935.192 478.502 934.47 478.623C933.346 478.863 932.323 478.763 931.4 478.322C930.999 478.081 930.618 477.68 930.257 477.118C930.176 476.957 930.136 476.837 930.136 476.757L929.956 476.396C929.875 476.195 929.815 475.994 929.775 475.794C929.735 475.553 929.695 475.312 929.655 475.072C929.655 474.871 929.635 474.67 929.595 474.47C929.554 474.269 929.514 474.068 929.474 473.868C929.434 473.547 929.434 473.206 929.474 472.845V471.942L929.534 467.187L929.655 458.34C929.695 457.056 929.715 455.731 929.715 454.367C929.715 453.003 929.715 451.599 929.715 450.154C929.675 448.71 929.655 447.426 929.655 446.302C929.695 445.179 929.755 443.915 929.835 442.51V442.27C929.875 441.868 929.895 441.467 929.895 441.066C929.895 440.625 929.916 440.183 929.956 439.742C929.996 439.341 930.056 438.959 930.136 438.598C930.257 438.197 930.417 437.796 930.618 437.394C930.738 437.073 930.899 436.813 931.099 436.612C931.3 436.371 931.541 436.151 931.821 435.95C932.463 435.629 933.105 435.469 933.747 435.469C934.068 435.469 934.349 435.489 934.59 435.529C934.831 435.529 935.072 435.549 935.312 435.589C935.794 435.629 936.255 435.87 936.697 436.311C937.018 436.592 937.238 436.913 937.359 437.274C937.559 437.796 937.68 438.257 937.72 438.658C937.76 438.939 937.78 439.2 937.78 439.441C937.78 439.682 937.78 439.922 937.78 440.163V442.631L937.66 452.562C937.981 452.562 938.342 452.562 938.743 452.562C939.184 452.562 939.686 452.542 940.248 452.501C942.334 452.501 944.401 452.521 946.447 452.562C948.533 452.602 950.72 452.622 953.007 452.622H953.067C953.067 450.816 953.067 449.091 953.067 447.446C953.108 445.801 953.168 444.075 953.248 442.27C953.248 441.868 953.248 441.467 953.248 441.066C953.288 440.625 953.328 440.183 953.368 439.742C953.408 439.341 953.469 438.959 953.549 438.598C953.669 438.197 953.83 437.796 954.03 437.394C954.111 437.073 954.251 436.813 954.452 436.612C954.692 436.371 954.973 436.151 955.294 435.95C955.856 435.629 956.478 435.469 957.16 435.469C957.481 435.469 957.762 435.489 958.003 435.529C958.284 435.529 958.524 435.549 958.725 435.589C959.287 435.669 959.748 435.91 960.109 436.311C960.43 436.512 960.651 436.833 960.771 437.274C960.852 437.515 960.912 437.756 960.952 437.996C961.032 438.197 961.112 438.418 961.193 438.658ZM976.743 437.154C979.432 436.151 981.859 435.709 984.026 435.83C986.233 435.95 988.199 436.512 989.924 437.515C991.65 438.478 993.114 439.782 994.318 441.427C995.562 443.072 996.565 444.918 997.327 446.964C997.929 448.489 998.391 450.094 998.712 451.779C999.033 453.464 999.213 455.15 999.253 456.835C999.334 458.48 999.273 460.105 999.073 461.71C998.912 463.315 998.631 464.8 998.23 466.164C997.989 467.087 997.709 467.929 997.388 468.692C997.067 469.454 996.685 470.216 996.244 470.979C995.241 472.704 993.937 474.109 992.332 475.192C990.767 476.275 989.042 477.038 987.156 477.479C985.872 477.8 984.548 477.96 983.183 477.96C981.819 477.92 980.475 477.74 979.151 477.419C977.827 477.058 976.543 476.556 975.299 475.914C974.095 475.232 972.992 474.389 971.989 473.386C970.745 472.183 969.722 470.798 968.919 469.233C968.117 467.628 967.495 465.963 967.053 464.238C966.612 462.472 966.331 460.707 966.211 458.941C966.09 457.176 966.09 455.491 966.211 453.886C966.331 452.401 966.612 450.816 967.053 449.131C967.535 447.446 968.217 445.821 969.1 444.256C969.982 442.691 971.046 441.287 972.29 440.043C973.574 438.759 975.058 437.796 976.743 437.154ZM990.827 462.914C991.309 461.028 991.509 458.901 991.429 456.534C991.349 454.167 990.968 451.94 990.286 449.853C989.844 448.569 989.282 447.446 988.6 446.483C987.958 445.48 987.176 444.717 986.253 444.196C985.37 443.674 984.327 443.413 983.123 443.413C981.92 443.413 980.575 443.774 979.091 444.497C978.208 444.938 977.446 445.54 976.804 446.302C976.202 447.065 975.7 447.927 975.299 448.89C974.938 449.853 974.637 450.856 974.396 451.9C974.196 452.943 974.075 453.946 974.035 454.909C973.955 455.952 973.935 457.056 973.975 458.219C974.015 459.343 974.135 460.486 974.336 461.65C974.577 462.773 974.898 463.857 975.299 464.9C975.7 465.903 976.242 466.806 976.924 467.608C977.967 468.812 979.171 469.655 980.535 470.136C981.94 470.578 983.324 470.638 984.688 470.317C986.895 469.835 988.58 468.371 989.744 465.923C990.225 465.04 990.586 464.037 990.827 462.914ZM1035.23 475.673C1035.27 476.075 1035.23 476.456 1035.11 476.817C1035.03 477.058 1034.91 477.258 1034.75 477.419C1034.63 477.579 1034.47 477.74 1034.27 477.9C1033.91 478.141 1033.47 478.362 1032.95 478.562C1032.63 478.643 1032.3 478.703 1031.98 478.743C1031.7 478.823 1031.4 478.823 1031.08 478.743C1030.44 478.703 1029.88 478.462 1029.4 478.021C1028.71 477.459 1028.15 476.837 1027.71 476.155C1027.51 475.834 1027.29 475.473 1027.05 475.072C1026.81 474.67 1026.59 474.249 1026.39 473.808L1019.71 461.108C1019.38 461.108 1019.06 461.128 1018.74 461.168C1018.42 461.168 1018.1 461.188 1017.78 461.229C1016.94 461.309 1016.13 461.329 1015.37 461.289C1014.65 461.249 1013.89 461.249 1013.09 461.289H1011.94V472.183C1011.94 472.504 1011.92 472.804 1011.88 473.085C1011.88 473.366 1011.88 473.667 1011.88 473.988C1011.88 474.189 1011.86 474.45 1011.82 474.771C1011.82 475.092 1011.8 475.392 1011.76 475.673C1011.68 476.115 1011.5 476.576 1011.22 477.058C1010.94 477.499 1010.56 477.88 1010.08 478.201C1009.23 478.723 1008.21 478.863 1007.01 478.623C1006.48 478.502 1005.98 478.302 1005.5 478.021C1005.34 477.9 1005.2 477.76 1005.08 477.599C1004.96 477.399 1004.86 477.198 1004.78 476.997C1004.7 476.797 1004.62 476.596 1004.54 476.396C1004.5 476.155 1004.44 475.934 1004.36 475.734C1004.24 475.332 1004.18 474.951 1004.18 474.59V440.404C1004.18 440.163 1004.18 439.922 1004.18 439.682C1004.22 439.401 1004.26 439.16 1004.3 438.959C1004.34 438.518 1004.48 438.077 1004.72 437.635C1004.84 437.154 1005.04 436.813 1005.32 436.612C1005.56 436.371 1005.92 436.171 1006.4 436.01C1006.93 435.81 1007.67 435.729 1008.63 435.769C1010.44 435.81 1012.22 435.83 1013.99 435.83C1015.75 435.83 1017.52 435.87 1019.28 435.95C1020.45 436.03 1021.67 436.171 1022.96 436.371C1024.28 436.532 1025.5 436.833 1026.63 437.274C1027.35 437.555 1028.01 437.836 1028.61 438.117C1029.38 438.558 1029.98 438.979 1030.42 439.381C1031.82 440.665 1032.89 442.209 1033.61 444.015C1034.33 445.821 1034.69 447.646 1034.69 449.492C1034.69 451.659 1034.17 453.645 1033.13 455.451C1032.12 457.256 1030.5 458.6 1028.25 459.483C1028.17 459.563 1028.05 459.624 1027.89 459.664C1027.77 459.664 1027.67 459.684 1027.59 459.724L1033.13 470.858L1033.67 471.821C1033.75 471.982 1033.85 472.162 1033.97 472.363C1034.09 472.564 1034.19 472.764 1034.27 472.965C1034.39 473.166 1034.49 473.386 1034.57 473.627C1034.69 473.868 1034.81 474.088 1034.93 474.289C1035.05 474.851 1035.15 475.312 1035.23 475.673ZM1020.19 454.247C1020.91 454.247 1021.59 454.126 1022.23 453.886C1022.92 453.605 1023.52 453.244 1024.04 452.802C1024.6 452.361 1025.06 451.859 1025.42 451.298C1025.78 450.696 1025.99 450.054 1026.03 449.372C1026.19 447.365 1025.66 445.881 1024.46 444.918C1023.26 443.915 1021.67 443.373 1019.71 443.293C1018.54 443.213 1017.26 443.172 1015.85 443.172C1014.49 443.172 1013.19 443.172 1011.94 443.172C1011.98 444.818 1011.98 446.503 1011.94 448.228C1011.94 449.913 1011.94 451.92 1011.94 454.247H1020.19ZM1041.96 471.942L1042.02 467.187L1042.08 458.34C1042.12 457.056 1042.14 455.731 1042.14 454.367C1042.14 453.003 1042.14 451.599 1042.14 450.154C1042.14 448.71 1042.14 447.426 1042.14 446.302C1042.14 445.179 1042.18 443.915 1042.26 442.51V442.27C1042.3 441.868 1042.32 441.467 1042.32 441.066C1042.36 440.625 1042.38 440.183 1042.38 439.742C1042.42 439.02 1042.64 438.237 1043.04 437.394C1043.32 436.833 1043.74 436.351 1044.3 435.95C1044.94 435.629 1045.57 435.469 1046.17 435.469C1046.49 435.469 1046.77 435.489 1047.01 435.529C1047.29 435.529 1047.55 435.549 1047.79 435.589C1048.32 435.669 1048.78 435.91 1049.18 436.311C1049.42 436.512 1049.64 436.833 1049.84 437.274C1049.92 437.515 1049.98 437.756 1050.02 437.996C1050.1 438.197 1050.16 438.418 1050.2 438.658C1050.24 438.939 1050.26 439.2 1050.26 439.441C1050.3 439.682 1050.32 439.922 1050.32 440.163C1050.32 440.444 1050.3 440.705 1050.26 440.946C1050.26 441.146 1050.26 441.367 1050.26 441.608V442.631L1049.9 473.868V474.47C1049.9 474.59 1049.88 474.751 1049.84 474.951C1049.84 475.112 1049.82 475.312 1049.78 475.553C1049.7 475.754 1049.62 475.974 1049.54 476.215C1049.5 476.416 1049.44 476.636 1049.36 476.877C1049.24 477.078 1049.1 477.278 1048.94 477.479C1048.82 477.639 1048.66 477.8 1048.46 477.96C1048.13 478.281 1047.61 478.502 1046.89 478.623C1045.81 478.863 1044.78 478.763 1043.82 478.322C1043.34 478.001 1043 477.599 1042.8 477.118C1042.68 476.997 1042.62 476.877 1042.62 476.757C1042.58 476.676 1042.54 476.616 1042.5 476.576C1042.46 476.536 1042.42 476.476 1042.38 476.396C1042.3 476.195 1042.24 475.994 1042.2 475.794C1042.16 475.553 1042.14 475.312 1042.14 475.072C1042.1 474.871 1042.06 474.67 1042.02 474.47C1042.02 474.269 1042 474.068 1041.96 473.868C1041.92 473.547 1041.92 473.206 1041.96 472.845V471.942ZM1086.33 444.557C1085.77 445.399 1085.19 446.222 1084.58 447.024C1083.98 447.827 1083.4 448.629 1082.84 449.432C1080.31 453.043 1077.78 456.634 1075.26 460.205C1072.77 463.776 1070.28 467.388 1067.79 471.039C1068.39 471.039 1068.86 471.039 1069.18 471.039C1069.5 471.039 1069.76 471.039 1069.96 471.039C1070.2 471.039 1070.46 471.039 1070.74 471.039C1071.02 471.039 1071.44 471.059 1072.01 471.099C1072.57 471.099 1073.33 471.099 1074.29 471.099C1075.3 471.099 1076.62 471.099 1078.26 471.099C1079.31 471.099 1080.33 471.099 1081.33 471.099C1082.38 471.099 1083.42 471.139 1084.46 471.22C1084.66 471.26 1084.89 471.3 1085.13 471.34C1085.37 471.34 1085.59 471.38 1085.79 471.46L1086.15 471.641C1086.15 471.641 1086.27 471.681 1086.51 471.761C1086.99 472.042 1087.39 472.363 1087.71 472.724C1088.28 473.527 1088.44 474.43 1088.2 475.433C1088.16 475.713 1088.06 475.974 1087.89 476.215C1087.77 476.416 1087.63 476.596 1087.47 476.757C1087.15 477.078 1086.77 477.298 1086.33 477.419C1085.89 477.66 1085.43 477.8 1084.95 477.84C1084.74 477.88 1084.54 477.92 1084.34 477.96C1084.18 477.96 1084 477.96 1083.8 477.96H1061.95C1061.71 477.96 1061.47 477.96 1061.23 477.96C1060.99 477.96 1060.75 477.94 1060.51 477.9C1060.39 477.86 1060.27 477.84 1060.15 477.84C1060.07 477.84 1059.99 477.82 1059.91 477.78C1059.75 477.74 1059.59 477.72 1059.43 477.72C1059.31 477.68 1059.15 477.639 1058.94 477.599C1058.5 477.359 1058.16 477.138 1057.92 476.937C1057.44 476.576 1057.18 476.195 1057.14 475.794V475.734C1057.06 475.533 1057 475.352 1056.96 475.192C1056.96 475.031 1056.98 474.831 1057.02 474.59C1057.02 474.55 1057 474.53 1056.96 474.53C1056.96 474.49 1056.96 474.43 1056.96 474.349C1056.96 474.109 1057 473.888 1057.08 473.687C1057.16 473.446 1057.24 473.206 1057.32 472.965C1057.4 472.845 1057.46 472.724 1057.5 472.604C1057.58 472.443 1057.68 472.303 1057.8 472.183C1057.88 471.982 1057.98 471.781 1058.1 471.581C1058.26 471.38 1058.38 471.179 1058.46 470.979C1058.54 470.818 1058.62 470.658 1058.7 470.497C1058.82 470.297 1058.92 470.136 1059 470.016C1059.17 469.855 1059.29 469.715 1059.37 469.594C1059.49 469.434 1059.59 469.273 1059.67 469.113L1062.8 464.719L1068.39 456.594C1069.28 455.431 1070.14 454.227 1070.98 452.983C1071.86 451.699 1072.77 450.375 1073.69 449.011C1074.37 447.967 1074.99 447.065 1075.56 446.302C1076.12 445.5 1076.72 444.637 1077.36 443.714C1075.96 443.714 1074.63 443.714 1073.39 443.714C1072.19 443.714 1070.98 443.714 1069.78 443.714C1068.57 443.674 1067.31 443.654 1065.99 443.654C1064.7 443.614 1063.28 443.574 1061.71 443.534C1061.15 443.493 1060.49 443.413 1059.73 443.293C1059 443.132 1058.4 442.831 1057.92 442.39C1057.48 441.989 1057.22 441.567 1057.14 441.126C1057.02 440.725 1056.96 440.243 1056.96 439.682C1056.96 439.04 1057.14 438.478 1057.5 437.996C1057.9 437.475 1058.4 437.094 1059 436.853C1059.85 436.532 1060.67 436.371 1061.47 436.371C1061.91 436.331 1062.36 436.311 1062.8 436.311C1063.24 436.311 1063.66 436.271 1064.06 436.191H1064.36C1065.53 436.151 1067.25 436.151 1069.54 436.191C1071.86 436.191 1074.77 436.191 1078.26 436.191C1078.71 436.191 1079.17 436.191 1079.65 436.191C1080.13 436.151 1080.59 436.151 1081.03 436.191C1081.96 436.271 1082.92 436.291 1083.92 436.251C1084.97 436.211 1085.91 436.432 1086.75 436.913C1086.99 437.033 1087.21 437.174 1087.41 437.334C1087.61 437.495 1087.83 437.635 1088.08 437.756C1088.56 438.197 1088.78 438.719 1088.74 439.32C1088.74 439.922 1088.6 440.544 1088.32 441.186C1088.08 441.828 1087.75 442.45 1087.35 443.052C1086.95 443.654 1086.61 444.155 1086.33 444.557ZM1102.47 437.154C1105.15 436.151 1107.58 435.709 1109.75 435.83C1111.96 435.95 1113.92 436.512 1115.65 437.515C1117.37 438.478 1118.84 439.782 1120.04 441.427C1121.28 443.072 1122.29 444.918 1123.05 446.964C1123.65 448.489 1124.11 450.094 1124.43 451.779C1124.76 453.464 1124.94 455.15 1124.98 456.835C1125.06 458.48 1125 460.105 1124.8 461.71C1124.63 463.315 1124.35 464.8 1123.95 466.164C1123.71 467.087 1123.43 467.929 1123.11 468.692C1122.79 469.454 1122.41 470.216 1121.97 470.979C1120.96 472.704 1119.66 474.109 1118.05 475.192C1116.49 476.275 1114.76 477.038 1112.88 477.479C1111.59 477.8 1110.27 477.96 1108.91 477.96C1107.54 477.92 1106.2 477.74 1104.87 477.419C1103.55 477.058 1102.27 476.556 1101.02 475.914C1099.82 475.232 1098.71 474.389 1097.71 473.386C1096.47 472.183 1095.44 470.798 1094.64 469.233C1093.84 467.628 1093.22 465.963 1092.78 464.238C1092.33 462.472 1092.05 460.707 1091.93 458.941C1091.81 457.176 1091.81 455.491 1091.93 453.886C1092.05 452.401 1092.33 450.816 1092.78 449.131C1093.26 447.446 1093.94 445.821 1094.82 444.256C1095.7 442.691 1096.77 441.287 1098.01 440.043C1099.3 438.759 1100.78 437.796 1102.47 437.154ZM1116.55 462.914C1117.03 461.028 1117.23 458.901 1117.15 456.534C1117.07 454.167 1116.69 451.94 1116.01 449.853C1115.57 448.569 1115 447.446 1114.32 446.483C1113.68 445.48 1112.9 444.717 1111.98 444.196C1111.09 443.674 1110.05 443.413 1108.85 443.413C1107.64 443.413 1106.3 443.774 1104.81 444.497C1103.93 444.938 1103.17 445.54 1102.53 446.302C1101.92 447.065 1101.42 447.927 1101.02 448.89C1100.66 449.853 1100.36 450.856 1100.12 451.9C1099.92 452.943 1099.8 453.946 1099.76 454.909C1099.68 455.952 1099.66 457.056 1099.7 458.219C1099.74 459.343 1099.86 460.486 1100.06 461.65C1100.3 462.773 1100.62 463.857 1101.02 464.9C1101.42 465.903 1101.96 466.806 1102.65 467.608C1103.69 468.812 1104.89 469.655 1106.26 470.136C1107.66 470.578 1109.05 470.638 1110.41 470.317C1112.62 469.835 1114.3 468.371 1115.47 465.923C1115.95 465.04 1116.31 464.037 1116.55 462.914ZM1162.64 473.747C1162.6 474.43 1162.5 475.152 1162.34 475.914C1162.22 476.676 1161.84 477.298 1161.2 477.78C1160.72 478.181 1160.17 478.422 1159.57 478.502C1158.97 478.582 1158.37 478.542 1157.77 478.382C1157.2 478.261 1156.66 478.061 1156.14 477.78C1155.62 477.459 1155.2 477.078 1154.88 476.636C1153.51 474.951 1152.25 473.226 1151.09 471.46C1149.96 469.655 1148.82 467.849 1147.66 466.043L1142.6 458.4C1141.92 457.316 1141.19 456.113 1140.43 454.789C1139.67 453.424 1138.89 452.16 1138.09 450.997L1137.9 473.988V474.53C1137.9 475.172 1137.78 475.814 1137.54 476.456C1137.34 477.058 1136.98 477.579 1136.46 478.021C1136.06 478.342 1135.54 478.562 1134.9 478.683C1133.89 478.883 1133.05 478.823 1132.37 478.502C1131.73 478.181 1131.2 477.74 1130.8 477.178C1130.44 476.616 1130.18 475.974 1130.02 475.252C1129.9 474.49 1129.88 473.747 1129.96 473.025V472.002L1130.08 467.307L1130.14 458.58C1130.18 457.296 1130.2 455.992 1130.2 454.668C1130.2 453.304 1130.2 451.92 1130.2 450.515C1130.16 448.79 1130.16 446.964 1130.2 445.038C1130.28 443.112 1130.36 441.307 1130.44 439.621C1130.52 438.699 1130.74 437.916 1131.1 437.274C1131.26 436.712 1131.69 436.231 1132.37 435.83C1132.81 435.549 1133.37 435.368 1134.05 435.288C1134.78 435.208 1135.4 435.228 1135.92 435.348C1136.12 435.428 1136.32 435.529 1136.52 435.649C1136.72 435.729 1136.92 435.83 1137.12 435.95C1137.32 436.111 1137.5 436.271 1137.66 436.432C1137.86 436.592 1138.05 436.773 1138.21 436.973C1138.41 437.174 1138.59 437.394 1138.75 437.635C1138.91 437.836 1139.07 438.036 1139.23 438.237C1139.35 438.478 1139.47 438.699 1139.59 438.899C1139.71 439.1 1139.85 439.3 1140.01 439.501L1140.67 440.464L1154.58 462.372V458.4C1154.58 457.116 1154.56 455.812 1154.52 454.488C1154.52 453.123 1154.5 451.719 1154.46 450.274C1154.46 448.589 1154.46 446.784 1154.46 444.858C1154.5 442.932 1154.56 441.126 1154.64 439.441C1154.64 438.759 1154.84 437.976 1155.24 437.094C1155.44 436.572 1155.78 436.151 1156.26 435.83C1156.74 435.509 1157.28 435.288 1157.89 435.168C1158.49 435.047 1159.09 435.047 1159.69 435.168C1160.29 435.288 1160.82 435.529 1161.26 435.89C1161.38 436.01 1161.5 436.151 1161.62 436.311C1161.74 436.472 1161.84 436.652 1161.92 436.853C1162.12 437.374 1162.24 437.836 1162.28 438.237C1162.4 438.799 1162.46 439.3 1162.46 439.742C1162.46 444.757 1162.46 449.873 1162.46 455.089C1162.5 460.306 1162.54 465.422 1162.58 470.437C1162.58 470.999 1162.6 471.561 1162.64 472.122C1162.68 472.644 1162.68 473.186 1162.64 473.747ZM1198.69 460.807C1198.89 461.369 1199.03 462.011 1199.11 462.733C1199.24 463.415 1199.3 464.117 1199.3 464.84C1199.3 465.562 1199.24 466.284 1199.11 467.006C1199.03 467.689 1198.91 468.29 1198.75 468.812C1198.11 471.059 1196.83 472.945 1194.9 474.47C1192.98 475.954 1190.77 477.038 1188.28 477.72C1185.83 478.402 1183.29 478.643 1180.64 478.442C1178.03 478.241 1175.7 477.579 1173.66 476.456C1172.37 475.734 1171.27 474.851 1170.35 473.808C1169.42 472.764 1168.64 471.601 1168 470.317C1167.76 469.875 1167.6 469.374 1167.52 468.812C1167.48 468.21 1167.54 467.648 1167.7 467.127C1167.86 466.565 1168.12 466.084 1168.48 465.682C1168.84 465.241 1169.34 464.94 1169.98 464.78C1170.39 464.699 1170.83 464.659 1171.31 464.659C1171.83 464.659 1172.33 464.739 1172.81 464.9C1173.29 465.02 1173.74 465.241 1174.14 465.562C1174.54 465.843 1174.86 466.244 1175.1 466.766C1175.54 467.608 1176.16 468.391 1176.97 469.113C1177.81 469.795 1178.69 470.357 1179.61 470.798C1180.94 471.24 1182.26 471.42 1183.59 471.34C1184.95 471.26 1186.17 470.959 1187.26 470.437C1188.38 469.915 1189.28 469.213 1189.97 468.331C1190.65 467.408 1190.99 466.364 1190.99 465.201C1190.99 464.238 1190.85 463.455 1190.57 462.854C1190.29 462.212 1189.89 461.69 1189.36 461.289C1188.88 460.847 1188.28 460.486 1187.56 460.205C1186.88 459.924 1186.11 459.684 1185.27 459.483C1184.31 459.282 1183.33 459.142 1182.32 459.062C1181.36 458.982 1180.38 458.881 1179.37 458.761C1178.37 458.64 1177.39 458.48 1176.42 458.279C1175.46 458.079 1174.52 457.778 1173.6 457.377C1171.75 456.614 1170.35 455.451 1169.38 453.886C1168.42 452.321 1167.84 450.636 1167.64 448.83C1167.48 447.024 1167.7 445.239 1168.3 443.473C1168.9 441.668 1169.86 440.123 1171.19 438.839C1172.47 437.675 1174 436.853 1175.76 436.371C1177.57 435.85 1179.55 435.549 1181.72 435.469C1182.92 435.428 1184.13 435.469 1185.33 435.589C1186.58 435.709 1187.76 435.91 1188.88 436.191C1190.05 436.472 1191.11 436.833 1192.07 437.274C1193.08 437.715 1193.94 438.237 1194.66 438.839C1195.18 439.24 1195.7 439.782 1196.23 440.464C1196.75 441.106 1197.15 441.808 1197.43 442.571C1197.71 443.293 1197.79 443.995 1197.67 444.677C1197.59 445.359 1197.17 445.941 1196.41 446.423C1195.76 446.824 1195.14 447.004 1194.54 446.964C1193.98 446.884 1193.44 446.703 1192.92 446.423C1192.39 446.102 1191.89 445.74 1191.41 445.339C1190.93 444.938 1190.49 444.577 1190.09 444.256C1189 443.453 1187.66 442.912 1186.05 442.631C1184.45 442.35 1182.94 442.29 1181.54 442.45C1180.66 442.571 1179.83 442.771 1179.07 443.052C1178.31 443.333 1177.65 443.714 1177.09 444.196C1176.56 444.677 1176.14 445.279 1175.82 446.001C1175.54 446.683 1175.44 447.466 1175.52 448.349C1175.56 448.991 1175.74 449.532 1176.06 449.974C1176.42 450.415 1176.85 450.776 1177.33 451.057C1177.85 451.338 1178.41 451.558 1179.01 451.719C1179.61 451.879 1180.22 452 1180.82 452.08C1182.62 452.321 1184.43 452.501 1186.23 452.622C1188.04 452.742 1189.81 453.143 1191.53 453.826C1193.3 454.508 1194.8 455.431 1196.05 456.594C1197.29 457.758 1198.17 459.162 1198.69 460.807Z" fill="white"/>
</svg>
