<svg width="169" height="169" viewBox="0 0 169 169" fill="none" xmlns="http://www.w3.org/2000/svg">
 <style>
    .rotating {
      transform-origin: center; /* Set the rotation origin to the center of the SVG */
      animation: rotate 5s linear infinite; /* Smooth rotation animation */
    }

    @keyframes rotate {
      from {
        transform: rotate(0deg);
      }
      to {
        transform: rotate(360deg);
      }
    }
</style>
<g filter="url(#filter0_b_7_54)">
<circle cx="84" cy="85" r="48" fill="white" fill-opacity="0.07"/>
</g>
<path d="M81.704 70.0185C82.2111 70.0716 82.8766 70.3204 83.3332 70.5532L102.182 82.0747C104.484 83.7388 104.612 86.9085 102.497 88.7805L88.5466 97.2885C87.2173 97.9377 86.0967 96.2562 87.1997 95.2876C91.4669 92.5168 96.0057 90.1321 100.265 87.3545C100.673 87.0883 101.102 86.8615 101.332 86.4148C101.813 85.475 101.494 84.4753 100.607 83.9383L82.0895 72.6322C80.9277 72.0679 79.5539 72.8196 79.4423 74.1022L79.4499 97.0382C79.6182 97.9446 80.5406 98.6977 81.486 98.5809C81.9006 98.5301 82.2264 98.2009 82.618 98.1296C83.5902 97.9529 84.3612 98.9147 83.9581 99.8203C83.809 100.155 83.5099 100.351 83.1925 100.514C80.4029 101.944 77.2868 100.047 77 97.045L77.0092 73.8087C77.1843 71.9049 78.8655 70.2256 80.7877 70.0185C81.0164 69.9935 81.4738 69.9942 81.704 70.0185Z" fill="white"/>
<g clip-path="url(#clip0_7_54)" class="rotating">
<path d="M80.7237 7.68046C81.1654 7.43129 81.4893 7.07951 81.7101 6.63979C81.9309 6.20006 82.0045 5.6724 81.9751 5.07144L81.8279 2.88749C81.7837 2.27188 81.6365 1.75887 81.3568 1.3338C81.0917 0.908737 80.7237 0.615589 80.2526 0.410385C79.7814 0.219839 79.222 0.131894 78.5742 0.175867L76.2039 0.337098L75.1586 0.410385L76.0272 13.3822L78.2503 13.2356L77.9117 8.20813L79.0895 8.13484C79.7373 8.09087 80.282 7.9443 80.7237 7.69512V7.68046ZM77.7645 6.0828L77.5142 2.38914L78.6331 2.31585C78.9128 2.30119 79.1337 2.37448 79.2956 2.56503C79.4576 2.74091 79.5606 3.0194 79.5753 3.37118L79.6784 4.89555C79.7078 5.23267 79.6342 5.49651 79.5017 5.68705C79.3692 5.8776 79.1484 5.99486 78.8686 6.00952L77.7497 6.0828H77.7645Z" fill="white"/>
<path d="M87.8935 13.1037L91.2797 13.2943L91.4122 11.169L88.0113 10.9784L88.6444 0.131917L86.4213 0L85.6704 12.9718L86.5832 13.0304L87.0396 13.0451L87.8935 13.1037Z" fill="white"/>
<path d="M99.2447 1.34851L93.7532 13.5288L95.9174 13.9392L96.683 12.0338L99.2152 12.5175V14.5695L101.394 14.9799L100.776 1.64166L99.2447 1.34851ZM97.478 10.0697L99.1711 5.89231L99.2005 10.4068L97.478 10.0843V10.0697Z" fill="white"/>
<path d="M112.922 4.93958L110.713 4.23602L107.975 9.029L108.431 3.53247L106.223 2.84357L106.135 11.213L104.633 15.962L106.768 16.6215L108.27 11.8725L112.922 4.93958Z" fill="white"/>
<path d="M121.961 14.7307L120.695 20.3152L121.667 20.8721L126.084 16.7681L122.035 23.7303L123.743 24.727L130.28 13.4848L128.484 12.4441L123.007 17.4423L124.7 10.2602L122.845 9.19019L116.308 20.4324L118.06 21.4438L121.961 14.7307Z" fill="white"/>
<path d="M128.204 28.069L131.001 30.2676L132.356 28.582L129.544 26.3687L131.546 23.8476L134.005 25.7678L135.344 24.0822L132.886 22.162L134.947 19.5677L137.744 21.7663L139.099 20.0807L136.287 17.8674L134.535 16.5043L126.452 26.6912L128.204 28.069Z" fill="white"/>
<path d="M155.014 54.9214C155.264 55.5076 155.588 55.9767 155.971 56.3138C156.353 56.6509 156.795 56.8415 157.281 56.9001C157.767 56.9587 158.297 56.8708 158.856 56.6363L160.888 55.7861C161.462 55.5516 161.904 55.2292 162.213 54.8334C162.522 54.4377 162.699 53.9979 162.728 53.4849C162.758 52.9719 162.655 52.4296 162.39 51.8286L161.933 50.744L161.065 48.7066L149.036 53.7634L149.905 55.8008L154.572 53.8367L155.028 54.9214H155.014ZM160.387 52.6055C160.49 52.8693 160.49 53.1038 160.373 53.309C160.255 53.5289 160.034 53.7048 159.71 53.8367L158.297 54.4377C157.988 54.5696 157.723 54.5989 157.487 54.5256C157.251 54.4523 157.075 54.2911 156.972 54.0419L156.53 53.0159L159.96 51.5795L160.402 52.6055H160.387Z" fill="white"/>
<path d="M152.79 63.5839L154.071 68.0837L156.118 67.5121L155.205 64.2581L165.717 61.3266L165.113 59.2013L152.555 62.7044L152.79 63.5839Z" fill="white"/>
<path d="M154.94 72.6568L157.001 72.7594L157.369 75.2951L155.411 75.9694L155.72 78.1387L168.205 73.2431L167.984 71.7041L154.616 70.4582L154.925 72.6275L154.94 72.6568ZM159.371 74.6062L159.121 72.8767L163.641 73.1112L159.371 74.5916V74.6062Z" fill="white"/>
<path d="M155.838 81.5099L155.897 83.7231L160.903 83.6059L169 85.7312L168.941 83.43L163.508 82.404L168.882 81.0555L168.823 78.7396L160.844 81.378L155.838 81.5099Z" fill="white"/>
<path d="M155.014 95.9328L162.655 97.3985L156.957 98.0434L156.736 99.1281L162.095 101.942L154.145 100.418L153.762 102.353L166.586 104.815L166.983 102.792L160.432 99.2747L167.808 98.5125L168.22 96.4165L155.396 93.9394L155.014 95.9328Z" fill="white"/>
<path d="M152.776 105.533L152.452 106.471L152.054 107.629H152.04L150.862 110.986L152.923 111.704L154.101 108.348L157.148 109.403L156.118 112.334L158.164 113.053L159.195 110.121L162.316 111.206L161.138 114.562L163.185 115.266L164.775 110.751L165.099 109.828L152.776 105.533Z" fill="white"/>
<path d="M134.402 135.581L132.738 137.061L136.125 140.814L135.241 141.605C134.755 142.03 134.417 142.485 134.225 142.954C134.034 143.423 133.99 143.892 134.093 144.376C134.196 144.859 134.446 145.314 134.858 145.768L136.331 147.395C136.743 147.849 137.185 148.172 137.656 148.333C138.127 148.494 138.613 148.509 139.099 148.377C139.584 148.245 140.085 147.967 140.556 147.527L142.323 145.959L143.103 145.27L134.387 135.596L134.402 135.581ZM139.202 145.885C138.995 146.076 138.76 146.149 138.524 146.105C138.274 146.061 138.039 145.915 137.803 145.651L136.772 144.507C136.552 144.258 136.434 144.009 136.419 143.775C136.419 143.525 136.507 143.32 136.713 143.13L137.553 142.382L140.041 145.138L139.202 145.885Z" fill="white"/>
<path d="M125.245 143.056L122.462 144.991L123.684 146.735L126.467 144.815L132.679 153.742L134.52 152.481L127.085 141.796L125.245 143.056Z" fill="white"/>
<path d="M118.384 147.322L118.958 149.3L116.661 150.473L115.38 148.861L113.422 149.872L122.153 160.015L123.537 159.311L120.342 146.34L118.384 147.351V147.322ZM117.986 152.129L119.547 151.338L120.798 155.676L117.986 152.144V152.129Z" fill="white"/>
<path d="M110.272 151.074L108.196 151.851L109.948 156.512L110.566 164.837L112.73 164.031L111.935 158.579L114.968 163.196L117.133 162.39L112.024 155.735L110.272 151.074Z" fill="white"/>
<path d="M96.3001 154.973L97.3748 162.639L94.9309 157.479L93.8267 157.626L92.8697 163.577L91.7655 155.588L89.7927 155.867L91.5889 168.736L93.65 168.443L94.872 161.158L97.9932 167.857L100.113 167.564L98.3171 154.694L96.3001 154.973Z" fill="white"/>
<path d="M80.6648 155.911L80.6206 158.066L84.1982 158.124L84.1393 161.349L81.0181 161.29L80.9887 163.445L84.1099 163.503L84.051 166.801L80.4881 166.743L80.444 168.897L84.0215 168.956L86.2447 169L86.4508 155.999L84.6546 155.97L80.6648 155.911Z" fill="white"/>
<path d="M47.539 151.807L46.5085 151.235C45.949 150.927 45.4043 150.752 44.9037 150.722C44.3884 150.693 43.932 150.81 43.5051 151.059C43.0781 151.308 42.7248 151.704 42.4303 152.232L41.3556 154.137C41.0464 154.68 40.8992 155.193 40.8992 155.691C40.8992 156.189 41.0464 156.644 41.3261 157.069C41.6059 157.494 42.0475 157.86 42.607 158.168L43.7259 158.798L45.5809 159.824L51.9411 148.48L49.9977 147.395L47.5243 151.792L47.539 151.807ZM43.2842 155.779C43.2401 155.53 43.3137 155.266 43.4903 154.958L44.2412 153.624C44.4031 153.331 44.5945 153.141 44.8301 153.053C45.0509 152.965 45.2865 152.994 45.5368 153.126L46.5232 153.668L44.7123 156.893L43.7259 156.351C43.4756 156.219 43.3431 156.028 43.2989 155.779H43.2842Z" fill="white"/>
<path d="M41.8709 142.294L39.1325 140.286L37.8664 142.001L40.6047 144.009L34.1268 152.76L35.923 154.064L43.667 143.599L41.8709 142.294Z" fill="white"/>
<path d="M35.5844 137.193L33.8913 138.381L32.0362 136.607L33.1552 134.878L31.5651 133.353L24.7633 144.874L25.8822 145.944L37.1744 138.718L35.5844 137.193ZM30.8879 138.381L32.154 139.583L28.4439 142.162L30.8879 138.366V138.381Z" fill="white"/>
<path d="M29.3714 130.773L27.9581 129.059L24.1008 132.225L16.4009 135.522L17.8731 137.296L22.7757 134.775L19.3896 139.128L20.8618 140.916L25.5141 133.939L29.3714 130.773Z" fill="white"/>
<path d="M21.1121 118.886L14.1778 122.404L18.2854 118.417L17.7701 117.421L11.8222 118.476L19.0362 114.826L18.1234 113.067L6.50732 118.96L7.44957 120.806L14.7667 119.575L9.43711 124.691L10.4088 126.581L22.0396 120.689L21.1121 118.886Z" fill="white"/>
<path d="M16.9456 109.975L16.6364 109.051L15.0906 104.507L13.0294 105.211L14.1778 108.582L11.1155 109.608L10.1143 106.662L8.06791 107.351L9.06905 110.297L5.93315 111.367L4.78479 107.996L2.72363 108.685L3.87199 112.056L4.137 112.818L4.2695 113.229L4.59339 114.152L16.9456 109.975Z" fill="white"/>
<path d="M13.2356 72.862L8.24462 71.9826L8.45074 70.8246C8.56852 70.1944 8.55379 69.6374 8.40657 69.139C8.25934 68.6407 8.00906 68.2449 7.62627 67.9371C7.24349 67.6293 6.75764 67.4241 6.16874 67.3068L4.00453 66.9257C3.38618 66.8231 2.85617 66.8378 2.37033 66.999C1.89921 67.1603 1.51642 67.4388 1.20725 67.8492C0.898075 68.2596 0.691959 68.7726 0.588901 69.4175L0.382786 70.5754L0 72.7594L12.8528 75.0313L13.2356 72.8473V72.862ZM2.69422 69.8572C2.73839 69.5787 2.87089 69.3882 3.09173 69.2709C3.31257 69.1537 3.5923 69.1244 3.94564 69.183L5.46206 69.4468C5.78596 69.5055 6.03624 69.6227 6.19819 69.8133C6.36014 70.0038 6.4043 70.2237 6.36014 70.5022L6.16874 71.6015L2.50283 70.9565L2.69422 69.8572Z" fill="white"/>
<path d="M15.4439 63.5106L16.445 60.286L14.4133 59.6557L13.3975 62.8803L2.97392 59.641L2.3114 61.7663L14.7814 65.6359L15.4439 63.5106Z" fill="white"/>
<path d="M18.2265 55.9473L16.5482 54.7308L17.6376 52.4003L19.6399 52.884L20.5674 50.8905L7.4202 48.2375L6.75769 49.6447L17.2843 57.9261L18.2118 55.9327L18.2265 55.9473ZM15.5765 51.9019L14.8404 53.4849L11.1745 50.8319L15.5765 51.9019Z" fill="white"/>
<path d="M22.3047 48.047L23.4678 46.1562L19.213 43.5472L13.5742 37.3618L12.367 39.3258L16.3568 43.1368L11.1156 41.3486L9.90833 43.3273L18.0499 45.438L22.3047 48.047Z" fill="white"/>
<path d="M30.9174 36.409L25.3228 31.0151L30.461 33.5801L31.2265 32.7886L28.2967 27.5266L34.1121 33.1257L35.4961 31.704L26.1178 22.6603L24.6603 24.1554L28.2231 30.6486L21.6127 27.2921L20.1257 28.8165L29.504 37.8601L30.9174 36.409Z" fill="white"/>
<path d="M38.8233 28.9777L42.6218 26.0462L41.2967 24.3313L38.47 26.5152L36.4972 23.9795L38.9558 22.0741L37.6308 20.3591L35.1721 22.2646L33.1404 19.6702L35.9672 17.4863L34.6274 15.7714L31.8007 17.9553L30.0487 19.3185L38.043 29.5786L38.8233 28.9777Z" fill="white"/>
</g>
<defs>
<filter id="filter0_b_7_54" x="25" y="26" width="118" height="118" filterUnits="userSpaceOnUse" color-interpolation-filters="sRGB">
<feFlood flood-opacity="0" result="BackgroundImageFix"/>
<feGaussianBlur in="BackgroundImageFix" stdDeviation="5.5"/>
<feComposite in2="SourceAlpha" operator="in" result="effect1_backgroundBlur_7_54"/>
<feBlend mode="normal" in="SourceGraphic" in2="effect1_backgroundBlur_7_54" result="shape"/>
</filter>
<clipPath id="clip0_7_54">
<rect width="169" height="169" fill="white"/>
</clipPath>
</defs>
</svg>
