<svg width="17" height="18" viewBox="0 0 17 18" fill="none" xmlns="http://www.w3.org/2000/svg">
<g clip-path="url(#clip0_584_3503)">
<path d="M8.59961 2.42297C10.7356 2.42297 10.9889 2.43124 11.8323 2.47119C12.7043 2.51253 13.6023 2.71782 14.2376 3.37433C14.8789 4.03704 15.0716 4.95602 15.1116 5.85984C15.1503 6.73128 15.1583 6.99306 15.1583 9.20026C15.1583 11.4075 15.1503 11.6692 15.1116 12.5407C15.0723 13.4369 14.8689 14.3738 14.2376 15.0262C13.5963 15.6889 12.7076 15.888 11.8323 15.9293C10.9889 15.9693 10.7356 15.9775 8.59961 15.9775C6.46361 15.9775 6.21028 15.9693 5.36694 15.9293C4.50628 15.8887 3.58761 15.6737 2.96161 15.0262C2.32361 14.3669 2.12761 13.439 2.08761 12.5407C2.04894 11.6692 2.04094 11.4075 2.04094 9.20026C2.04094 6.99306 2.04894 6.73128 2.08761 5.85984C2.12694 4.96704 2.33228 4.02464 2.96161 3.37433C3.60161 2.71299 4.49428 2.51253 5.36694 2.47119C6.21028 2.43124 6.46361 2.42297 8.59961 2.42297ZM8.59961 0.933594C6.42694 0.933594 6.15428 0.943238 5.30094 0.983194C4.06428 1.04175 2.83628 1.39722 1.94228 2.32102C1.04494 3.24826 0.704276 4.51444 0.647609 5.79164C0.608943 6.67342 0.599609 6.95517 0.599609 9.20026C0.599609 11.4453 0.608943 11.7271 0.647609 12.6089C0.704276 13.8854 1.04961 15.1578 1.94228 16.0795C2.83894 17.0061 4.06628 17.3588 5.30094 17.4173C6.15428 17.4573 6.42694 17.4669 8.59961 17.4669C10.7723 17.4669 11.0449 17.4573 11.8983 17.4173C13.1343 17.3588 14.3636 17.0026 15.2569 16.0795C16.1549 15.1516 16.4949 13.8861 16.5516 12.6089C16.5903 11.7271 16.5996 11.4453 16.5996 9.20026C16.5996 6.95517 16.5903 6.67342 16.5516 5.79164C16.4949 4.51375 16.1503 3.24413 15.2569 2.32102C14.3616 1.39584 13.1309 1.04106 11.8983 0.983194C11.0449 0.943238 10.7723 0.933594 8.59961 0.933594Z" fill="#033a4e"/>
<path d="M8.59921 4.95508C6.33054 4.95508 4.49121 6.85572 4.49121 9.20001C4.49121 11.5443 6.33054 13.4449 8.59921 13.4449C10.8679 13.4449 12.7072 11.5443 12.7072 9.20001C12.7072 6.85572 10.8679 4.95508 8.59921 4.95508ZM8.59921 11.9556C7.12654 11.9556 5.93254 10.7218 5.93254 9.20001C5.93254 7.67826 7.12654 6.44446 8.59921 6.44446C10.0719 6.44446 11.2659 7.67826 11.2659 9.20001C11.2659 10.7218 10.0719 11.9556 8.59921 11.9556Z" fill="#033a4e"/>
<path d="M12.8702 5.77892C13.4004 5.77892 13.8302 5.33479 13.8302 4.78692C13.8302 4.23906 13.4004 3.79492 12.8702 3.79492C12.34 3.79492 11.9102 4.23906 11.9102 4.78692C11.9102 5.33479 12.34 5.77892 12.8702 5.77892Z" fill="#033a4e"/>
</g>
<defs>
<clipPath id="clip0_584_3503">
<rect width="16" height="16.5333" fill="white" transform="translate(0.599609 0.933594)"/>
</clipPath>
</defs>
</svg>
