<svg width="32" height="31" viewBox="0 0 32 31" fill="none" xmlns="http://www.w3.org/2000/svg">
<circle cx="15.6" cy="15.4667" r="15.4667" fill="#D79A4C"/>
<g clip-path="url(#clip0_584_1047)">
<path d="M15.6001 8.42297C17.7361 8.42297 17.9894 8.43124 18.8328 8.47119C19.7048 8.51253 20.6028 8.71782 21.2381 9.37433C21.8794 10.037 22.0721 10.956 22.1121 11.8598C22.1508 12.7313 22.1588 12.9931 22.1588 15.2003C22.1588 17.4075 22.1508 17.6692 22.1121 18.5407C22.0728 19.4369 21.8694 20.3738 21.2381 21.0262C20.5968 21.6889 19.7081 21.888 18.8328 21.9293C17.9894 21.9693 17.7361 21.9775 15.6001 21.9775C13.4641 21.9775 13.2108 21.9693 12.3674 21.9293C11.5068 21.8887 10.5881 21.6737 9.9621 21.0262C9.3241 20.3669 9.1281 19.439 9.0881 18.5407C9.04943 17.6692 9.04143 17.4075 9.04143 15.2003C9.04143 12.9931 9.04943 12.7313 9.0881 11.8598C9.12743 10.967 9.33276 10.0246 9.9621 9.37433C10.6021 8.71299 11.4948 8.51253 12.3674 8.47119C13.2108 8.43124 13.4641 8.42297 15.6001 8.42297ZM15.6001 6.93359C13.4274 6.93359 13.1548 6.94324 12.3014 6.98319C11.0648 7.04175 9.83676 7.39722 8.94276 8.32102C8.04543 9.24826 7.70476 10.5144 7.6481 11.7916C7.60943 12.6734 7.6001 12.9552 7.6001 15.2003C7.6001 17.4453 7.60943 17.7271 7.6481 18.6089C7.70476 19.8854 8.0501 21.1578 8.94276 22.0795C9.83943 23.0061 11.0668 23.3588 12.3014 23.4173C13.1548 23.4573 13.4274 23.4669 15.6001 23.4669C17.7728 23.4669 18.0454 23.4573 18.8988 23.4173C20.1348 23.3588 21.3641 23.0026 22.2574 22.0795C23.1554 21.1516 23.4954 19.8861 23.5521 18.6089C23.5908 17.7271 23.6001 17.4453 23.6001 15.2003C23.6001 12.9552 23.5908 12.6734 23.5521 11.7916C23.4954 10.5137 23.1508 9.24413 22.2574 8.32102C21.3621 7.39584 20.1314 7.04106 18.8988 6.98319C18.0454 6.94324 17.7728 6.93359 15.6001 6.93359Z" fill="white"/>
<path d="M15.5997 10.9551C13.331 10.9551 11.4917 12.8557 11.4917 15.2C11.4917 17.5443 13.331 19.4449 15.5997 19.4449C17.8684 19.4449 19.7077 17.5443 19.7077 15.2C19.7077 12.8557 17.8684 10.9551 15.5997 10.9551ZM15.5997 17.9556C14.127 17.9556 12.933 16.7218 12.933 15.2C12.933 13.6783 14.127 12.4445 15.5997 12.4445C17.0724 12.4445 18.2664 13.6783 18.2664 15.2C18.2664 16.7218 17.0724 17.9556 15.5997 17.9556Z" fill="white"/>
<path d="M19.8706 11.7789C20.4008 11.7789 20.8306 11.3348 20.8306 10.7869C20.8306 10.2391 20.4008 9.79492 19.8706 9.79492C19.3405 9.79492 18.9106 10.2391 18.9106 10.7869C18.9106 11.3348 19.3405 11.7789 19.8706 11.7789Z" fill="white"/>
</g>
<defs>
<clipPath id="clip0_584_1047">
<rect width="16" height="16.5333" fill="white" transform="translate(7.6001 6.93359)"/>
</clipPath>
</defs>
</svg>
