<svg width="72" height="14" viewBox="0 0 72 14" fill="none" xmlns="http://www.w3.org/2000/svg">
<path d="M31.8159 9.30522V6.60443C31.8159 5.57008 31.1908 4.89488 30.1253 4.89488C29.5854 4.89488 29.0171 5.08164 28.6052 5.65628C28.2926 5.16784 27.8522 4.89488 27.1845 4.89488C26.7441 4.89488 26.2895 5.02418 25.9343 5.52699V4.98108H25.0109V9.30522H25.9485V6.92048C25.9485 6.15908 26.3463 5.79994 26.9714 5.79994C27.5965 5.79994 27.909 6.20218 27.909 6.92048V9.30522H28.8467V6.92048C28.8467 6.15908 29.2871 5.79994 29.8695 5.79994C30.4946 5.79994 30.8072 6.20218 30.8072 6.92048V9.30522H31.8159ZM45.6673 4.98108H44.1472V3.67378H43.2096V4.98108H42.3572V5.84303H43.2096V7.82553C43.2096 8.81678 43.6074 9.40578 44.6729 9.40578C45.0707 9.40578 45.5253 9.27649 45.8236 9.08973L45.5537 8.28524C45.2838 8.472 44.9712 8.51509 44.7581 8.51509C44.3177 8.51509 44.133 8.24214 44.133 7.7968V5.8574H45.6531V4.98108H45.6673ZM53.5804 4.89488C53.0406 4.89488 52.6854 5.16784 52.4723 5.52699V4.98108H51.5347V9.30522H52.4723V6.87738C52.4723 6.15908 52.7849 5.75684 53.3673 5.75684C53.552 5.75684 53.7651 5.79993 53.9498 5.84303L54.2197 4.93798C54.035 4.89488 53.7651 4.89488 53.5804 4.89488ZM41.6042 5.34023C41.1638 5.02418 40.5387 4.89488 39.871 4.89488C38.8055 4.89488 38.0952 5.44079 38.0952 6.28838C38.0952 7.00667 38.635 7.40892 39.5585 7.55258L39.9989 7.59568C40.4819 7.68187 40.7518 7.82553 40.7518 8.04102C40.7518 8.35707 40.3967 8.58692 39.7716 8.58692C39.1465 8.58692 38.6635 8.35707 38.3509 8.14158L37.9105 8.85987C38.3935 9.21902 39.0612 9.40578 39.729 9.40578C40.9791 9.40578 41.6895 8.81678 41.6895 8.01229C41.6895 7.25089 41.107 6.84865 40.2262 6.70499L39.7858 6.66189C39.388 6.61879 39.0755 6.5326 39.0755 6.25964C39.0755 5.94359 39.388 5.7712 39.871 5.7712C40.4109 5.7712 40.9365 6.00106 41.2064 6.13035L41.6042 5.34023ZM66.4517 4.89488C65.9118 4.89488 65.5566 5.16784 65.3435 5.52699V4.98108H64.4059V9.30522H65.3435V6.87738C65.3435 6.15908 65.6561 5.75684 66.2386 5.75684C66.4232 5.75684 66.6363 5.79993 66.821 5.84303L67.091 4.93798C66.8921 4.89488 66.6221 4.89488 66.4517 4.89488ZM54.5181 7.13597C54.5181 8.44326 55.4131 9.39142 56.7911 9.39142C57.4162 9.39142 57.8566 9.26212 58.3113 8.90298L57.8708 8.14158C57.5157 8.41453 57.1605 8.54383 56.7627 8.54383C56.0098 8.54383 55.4699 7.99792 55.4699 7.15033C55.4699 6.34584 56.0098 5.79993 56.7627 5.75684C57.1605 5.75684 57.5157 5.88613 57.8708 6.15908L58.3113 5.39769C57.8708 5.03854 57.4162 4.90925 56.7911 4.90925C55.4131 4.89488 54.5181 5.84303 54.5181 7.13597ZM63.1557 4.98108H62.2181V5.52699C61.9055 5.12474 61.4651 4.89488 60.8827 4.89488C59.6751 4.89488 58.7517 5.84303 58.7517 7.15033C58.7517 8.45763 59.6893 9.40578 60.8827 9.40578C61.5077 9.40578 61.9482 9.17592 62.2181 8.77368V9.31959H63.1557V4.98108ZM59.7319 7.13597C59.7319 6.37457 60.2149 5.74247 61.0247 5.74247C61.7777 5.74247 62.3175 6.33147 62.3175 7.13597C62.3175 7.89736 61.7777 8.52946 61.0247 8.52946C60.2149 8.48636 59.7319 7.91172 59.7319 7.13597ZM48.5513 4.89488C47.3011 4.89488 46.4203 5.79994 46.4203 7.15033C46.4203 8.50073 47.3153 9.40578 48.6081 9.40578C49.2332 9.40578 49.8583 9.21902 50.3413 8.81678L49.9009 8.14158C49.5457 8.41453 49.1053 8.58692 48.6507 8.58692C48.0683 8.58692 47.5 8.31397 47.3579 7.55258H50.5118V7.19343C50.5544 5.78557 49.7588 4.89488 48.5513 4.89488ZM48.5513 5.69937C49.1338 5.69937 49.5315 6.05852 49.6168 6.73372H47.3863C47.4858 6.15908 47.8836 5.69937 48.5513 5.69937ZM71.7507 3.27153H70.8131V5.52699C70.5005 5.12474 70.0602 4.89488 69.4777 4.89488C68.2701 4.89488 67.3467 5.84303 67.3467 7.15033C67.3467 8.45763 68.2843 9.40578 69.4777 9.40578C70.1028 9.40578 70.5432 9.17592 70.8131 8.77368V9.31959H71.7507V3.27153ZM68.3127 7.13597C68.3127 6.37457 68.7958 5.74247 69.6055 5.74247C70.3585 5.74247 70.8983 6.33147 70.8983 7.13597C70.8983 7.89736 70.3585 8.52946 69.6055 8.52946C68.81 8.48636 68.3127 7.91172 68.3127 7.13597ZM37.0723 4.98108H36.1347V5.52699C35.8221 5.12474 35.3817 4.89488 34.7992 4.89488C33.5917 4.89488 32.6683 5.84303 32.6683 7.15033C32.6683 8.45763 33.6059 9.40578 34.7992 9.40578C35.4243 9.40578 35.8647 9.17592 36.1347 8.77368V9.31959H37.0723V4.98108ZM33.6059 7.13597C33.6059 6.37457 34.0889 5.74247 34.8987 5.74247C35.6516 5.74247 36.1915 6.33147 36.1915 7.13597C36.1915 7.89736 35.6516 8.52946 34.8987 8.52946C34.0889 8.48636 33.6059 7.91172 33.6059 7.13597Z" fill="#000008"/>
<path d="M13.246 1.98875H7.64166V12.1689H13.246V1.98875Z" fill="#FF5F00"/>
<path d="M7.99372 7.08169C7.99372 5.01466 8.95332 3.17729 10.4296 1.98875C9.34511 1.12748 7.97668 0.60498 6.47766 0.60498C2.9402 0.60498 0.0727539 3.49883 0.0727539 7.08169C0.0727539 10.6588 2.93452 13.5584 6.47766 13.5584C7.971 13.5584 9.33943 13.0359 10.4296 12.1746C8.95332 11.0033 7.99372 9.14873 7.99372 7.08169Z" fill="#EB001B"/>
<path d="M20.8035 7.08169C20.8035 10.6588 17.9417 13.5584 14.3986 13.5584C12.9053 13.5584 11.5368 13.0359 10.4466 12.1746C11.94 10.9861 12.8826 9.15447 12.8826 7.08169C12.8826 5.01466 11.923 3.17729 10.4466 1.98875C11.5312 1.12748 12.8996 0.604983 14.3986 0.604983C17.9417 0.604983 20.8035 3.51606 20.8035 7.08169Z" fill="#F79E1B"/>
</svg>
