<svg width="183" height="185" viewBox="0 0 183 185" fill="none" xmlns="http://www.w3.org/2000/svg">
<mask id="mask0_4178_163" style="mask-type:luminance" maskUnits="userSpaceOnUse" x="0" y="0" width="183" height="185">
<path d="M183 0H0V184.443H183V0Z" fill="white"/>
</mask>
<g mask="url(#mask0_4178_163)">
<path d="M82.2407 8.66033C83.3463 14.6334 82.1947 17.5355 78.4326 18.2264C74.9163 18.8713 72.7205 16.6295 71.6152 10.5797C70.5249 4.6834 72.0909 1.93487 75.4537 1.32067C79.0161 0.660407 81.1966 2.979 82.2407 8.66033ZM74.6092 10.0116C75.3309 13.8964 76.3443 16.0921 78.0488 15.7696C79.8607 15.4318 79.9835 13.2054 79.2311 9.16703C78.5248 5.37436 77.6188 3.48572 75.8376 3.82351C74.0871 4.14597 73.9336 6.37243 74.5938 10.0116H74.6092Z" fill="white"/>
<path d="M91.3008 0.0460388L91.1165 11.4701C91.1012 12.8367 91.4083 14.449 93.2355 14.4797C95.0014 14.5104 95.4006 13.1592 95.4313 11.5622L95.6156 0.107458L98.5943 0.153523L98.41 11.6544C98.364 14.6332 97.1662 17.044 93.1434 16.9825C89.1971 16.9211 88.0762 14.6179 88.1376 11.4855L88.3219 -0.0153809L91.3008 0.0306839V0.0460388Z" fill="white"/>
<path d="M107.438 10.9941L105.995 17.9345L103.093 17.3357L106.471 1.05945L111.461 2.08823C114.424 2.70243 115.776 4.59109 115.177 7.49316C114.685 9.84246 113.212 10.5949 112.29 10.7638C113.426 11.6083 113.81 12.806 113.304 15.2167L113.166 15.8616C112.782 17.7042 112.72 18.4259 112.674 19.3164L109.849 18.733C109.772 17.9345 109.987 16.6447 110.279 15.232L110.402 14.6332C110.847 12.4528 110.509 11.6236 108.666 11.2398L107.423 10.9787L107.438 10.9941ZM107.929 8.62942L109.296 8.92117C111.062 9.28969 111.906 8.67548 112.244 7.03252C112.536 5.63522 112.029 4.6832 110.54 4.37612L108.881 4.03831L107.929 8.66013V8.62942Z" fill="white"/>
<path d="M136.552 20.7139C133.68 26.0727 130.978 27.6236 127.6 25.8117C124.452 24.1226 124.145 21.0056 127.047 15.5853C129.872 10.3032 132.805 9.13626 135.83 10.7485C139.024 12.4529 139.285 15.6314 136.552 20.7139ZM129.749 16.998C127.892 20.4682 127.308 22.8174 128.844 23.6466C130.456 24.5065 131.945 22.8481 133.895 19.2245C135.722 15.8157 136.183 13.7888 134.586 12.9289C133.02 12.0844 131.5 13.7274 129.749 16.998Z" fill="white"/>
<path d="M146.625 17.7658L153.304 23.094L151.676 25.1362L147.3 21.6506L144.644 24.998L148.759 28.2687L147.162 30.2646L143.047 26.9942L138.579 32.614L136.26 30.7713L146.609 17.7658H146.625Z" fill="white"/>
<path d="M158.247 27.8383L163.959 34.1954L162.025 35.9305L158.293 31.7692L155.115 34.6253L158.631 38.5407L156.727 40.2604L153.211 36.3451L147.867 41.151L145.887 38.9552L158.247 27.8383Z" fill="white"/>
<path d="M164.666 51.654L161.81 47.1396L157.726 49.7193L160.92 54.7863L158.555 55.8458L153.979 48.5983L168.044 39.7233L172.589 46.94L170.378 48.3373L167.399 43.6079L163.975 45.773L166.831 50.2874L164.651 51.6694L164.666 51.654Z" fill="white"/>
<path d="M168.244 59.8229L161.672 62.4793L160.567 59.7308L175.983 53.5121L177.887 58.2259C179.023 61.0206 178.194 63.201 175.445 64.3066C173.219 65.1972 171.776 64.3987 171.131 63.7231C171.054 65.1358 170.271 66.1185 167.998 67.0398L167.384 67.2855C165.634 67.9918 165.019 68.345 164.236 68.7903L163.161 66.1185C163.776 65.6118 164.973 65.0743 166.309 64.5369L166.877 64.3066C168.935 63.4774 169.442 62.725 168.735 60.9745L168.259 59.7922L168.244 59.8229ZM170.471 58.9169L170.993 60.2068C171.668 61.8651 172.651 62.2336 174.202 61.6041C175.522 61.0667 176.044 60.13 175.476 58.7173L174.847 57.1513L170.471 58.9169Z" fill="white"/>
<path d="M170.44 74.3946C169.119 74.8092 168.029 75.577 168.321 77.0818C168.612 78.5252 169.611 78.8783 170.824 78.6326C172.159 78.3716 172.804 77.5578 173.388 75.3006C174.156 72.2449 175.123 70.9243 177.534 70.433C180.144 69.9109 182.263 71.2468 182.862 74.195C183.584 77.8649 181.28 79.2622 179.177 79.738L178.609 76.8821C179.53 76.6058 180.85 76.0837 180.559 74.6096C180.328 73.4579 179.469 73.0894 178.363 73.3044C177.196 73.5347 176.751 74.1643 176.229 76.2526C175.461 79.4465 174.401 81.0278 171.668 81.5653C169.104 82.072 166.678 80.905 165.987 77.4656C165.25 73.719 167.415 72.0913 169.841 71.5078L170.424 74.41L170.44 74.3946Z" fill="white"/>
<path d="M168.628 127.461C162.962 125.281 161.089 122.778 162.455 119.216C163.745 115.884 166.801 115.193 172.543 117.404C178.133 119.554 179.668 122.318 178.425 125.527C177.119 128.905 174.002 129.55 168.628 127.477V127.461ZM171.484 120.245C167.799 118.832 165.404 118.54 164.774 120.168C164.114 121.888 165.956 123.147 169.78 124.636C173.388 126.018 175.461 126.233 176.106 124.544C176.751 122.886 174.924 121.581 171.469 120.245H171.484Z" fill="white"/>
<path d="M171.253 139.668L161.595 133.557C160.443 132.835 158.893 132.252 157.925 133.803C156.973 135.292 157.925 136.352 159.277 137.196L168.95 143.323L167.353 145.841L157.633 139.684C155.115 138.087 153.687 135.799 155.837 132.405C157.956 129.073 160.49 129.319 163.146 130.993L172.866 137.15L171.269 139.668H171.253Z" fill="white"/>
<path d="M153.457 147.699L148.298 142.832L150.325 140.682L162.425 152.075L158.939 155.776C156.866 157.972 154.547 158.141 152.382 156.114C150.632 154.471 150.755 152.812 151.108 151.952C149.788 152.475 148.574 152.167 146.793 150.478L146.317 150.018C144.951 148.728 144.367 148.298 143.63 147.791L145.611 145.703C146.333 146.056 147.315 146.916 148.36 147.899L148.805 148.313C150.417 149.833 151.323 149.987 152.613 148.62L153.488 147.699H153.457ZM155.208 149.357L154.256 150.371C153.027 151.676 153.104 152.72 154.332 153.872C155.377 154.855 156.451 154.931 157.496 153.81L158.647 152.582L155.223 149.357H155.208Z" fill="white"/>
<path d="M129.933 167.445C126.862 162.194 126.954 159.077 130.256 157.142C133.342 155.33 136.167 156.697 139.284 162.01C142.309 167.184 141.787 170.301 138.824 172.036C135.691 173.864 132.851 172.436 129.933 167.445ZM136.659 163.576C134.663 160.167 132.958 158.447 131.453 159.338C129.872 160.259 130.517 162.409 132.59 165.956C134.54 169.288 136.045 170.747 137.595 169.825C139.131 168.919 138.517 166.77 136.643 163.576H136.659Z" fill="white"/>
<path d="M127.216 177.58L119.17 180.497L118.279 178.041L123.531 176.136L122.072 172.113L117.128 173.91L116.252 171.499L121.197 169.703L118.74 162.947L121.519 161.933L127.2 177.565L127.216 177.58Z" fill="white"/>
<path d="M112.506 182.217L104.091 183.752L103.631 181.188L109.128 180.19L108.36 175.983L103.186 176.919L102.725 174.401L107.9 173.464L106.61 166.401L109.527 165.864L112.506 182.217Z" fill="white"/>
<path d="M88.9206 175.199L94.2489 175.107L94.1721 170.286L88.1836 170.378L88.506 167.814L97.0589 167.676L97.3353 184.29L88.8132 184.428L88.7671 181.817L94.3564 181.725L94.295 177.687L88.9667 177.779L88.9206 175.199Z" fill="white"/>
<path d="M80.0297 173.971L81.2118 166.985L84.1293 167.476L81.3654 183.86L76.3444 183.015C73.3655 182.508 71.9375 180.681 72.4289 177.748C72.8281 175.384 74.2715 174.57 75.1774 174.37C74.0105 173.557 73.5805 172.39 73.9951 169.964L74.1026 169.303C74.4097 167.445 74.4404 166.724 74.4558 165.833L77.2965 166.309C77.404 167.107 77.235 168.413 76.9894 169.81L76.8819 170.409C76.5133 172.605 76.8819 173.418 78.7398 173.741L79.999 173.956L80.0297 173.971ZM79.6305 176.351L78.2485 176.121C76.4826 175.829 75.6535 176.474 75.3771 178.132C75.1467 179.545 75.6842 180.482 77.1736 180.727L78.832 181.004L79.6151 176.351H79.6305Z" fill="white"/>
<path d="M66.4719 168.228C66.8097 166.877 66.7176 165.557 65.2895 165.019C63.9076 164.512 63.0937 165.188 62.6638 166.34C62.1878 167.614 62.541 168.597 64.1686 170.271C66.3644 172.528 66.994 174.033 66.1494 176.351C65.2281 178.854 62.9863 179.96 60.1611 178.931C56.6448 177.626 56.6601 174.939 57.3665 172.896L60.0997 173.91C59.854 174.831 59.6083 176.228 61.0208 176.75C62.1264 177.165 62.8788 176.627 63.278 175.568C63.6926 174.447 63.3855 173.741 61.8807 172.205C59.5623 169.871 58.7638 168.152 59.7312 165.541C60.6369 163.085 62.9095 161.626 66.1955 162.854C69.7886 164.175 70.0189 166.877 69.2665 169.257L66.4872 168.228H66.4719Z" fill="white"/>
<path d="M26.9176 145.319C31.3706 141.189 34.4414 140.605 37.0364 143.415C39.4779 146.041 38.7408 149.096 34.2264 153.273C29.8197 157.357 26.6719 157.511 24.3379 154.993C21.8811 152.336 22.6642 149.25 26.9022 145.319H26.9176ZM32.1535 151.062C35.0402 148.375 36.3608 146.348 35.1784 145.074C33.9347 143.722 31.9846 144.812 28.9598 147.622C26.1345 150.248 25.0289 152.029 26.2573 153.35C27.4703 154.655 29.4358 153.595 32.1535 151.077V151.062Z" fill="white"/>
<path d="M14.7863 142.263L24.5213 136.275C25.6729 135.569 26.886 134.432 25.9186 132.866C24.9973 131.361 23.6307 131.745 22.2794 132.59L12.5291 138.594L10.9629 136.06L20.7593 130.041C23.3082 128.475 25.98 128.198 28.0837 131.622C30.1566 134.985 28.8207 137.166 26.1489 138.809L16.3525 144.828L14.7863 142.279V142.263Z" fill="white"/>
<path d="M15.3855 122.747L22.0187 120.26L23.0629 123.039L7.49308 128.874L5.7119 124.114C4.65241 121.289 5.52766 119.124 8.30688 118.08C10.5641 117.235 11.9767 118.08 12.6063 118.77C12.7138 117.358 13.5276 116.406 15.8308 115.531L16.445 115.3C18.2108 114.64 18.8404 114.302 19.6235 113.872L20.6369 116.575C20.0073 117.066 18.7943 117.573 17.4431 118.08L16.8749 118.295C14.7867 119.077 14.2646 119.814 14.9249 121.58L15.3702 122.778L15.3855 122.747ZM13.1283 123.607L12.637 122.302C12.0074 120.613 11.0401 120.229 9.45852 120.828C8.12264 121.335 7.58521 122.256 8.12264 123.684L8.72147 125.266L13.1437 123.607H13.1283Z" fill="white"/>
<path d="M8.06095 92.9434C14.1261 92.5134 16.89 93.9722 17.1511 97.7954C17.4121 101.373 14.9246 103.293 8.79798 103.738C2.80957 104.168 0.260653 102.31 0.0149733 98.901C-0.246061 95.2927 2.30285 93.3733 8.06095 92.9587V92.9434ZM8.55232 100.682C12.4832 100.406 14.7864 99.638 14.6636 97.9029C14.5254 96.0758 12.3296 95.7073 8.22986 95.999C4.37577 96.2754 2.41033 96.9818 2.53317 98.7781C2.65602 100.559 4.85178 100.959 8.55232 100.698V100.682Z" fill="white"/>
<path d="M0.168457 86.0794L1.0744 77.5729L3.66938 77.8493L3.07055 83.4078L7.32385 83.8685L7.89199 78.6324L10.4409 78.9088L9.87276 84.1449L17.0128 84.9124L16.6904 87.8606L0.168457 86.0794Z" fill="white"/>
<path d="M2.47217 70.817L4.79078 62.5869L7.29363 63.2932L5.77349 68.6673L9.88861 69.8343L11.3166 64.7673L13.7888 65.4583L12.3608 70.5253L19.2705 72.4754L18.472 75.3161L2.47217 70.8017V70.817Z" fill="white"/>
<path d="M19.1933 52.6523L16.89 57.4582L21.2509 59.5312L23.8305 54.1264L25.9801 55.5542L22.295 63.2778L7.29321 56.107L10.963 48.4142L13.3123 49.5352L10.9016 54.5717L14.5561 56.3219L16.8593 51.516L19.1933 52.6369V52.6523Z" fill="white"/>
<path d="M24.199 45.2662L29.9419 49.4121L28.2067 51.8075L14.7251 42.0877L17.704 37.9574C19.4698 35.5005 21.7422 35.0399 24.153 36.775C26.1031 38.1877 26.1952 39.8307 25.9649 40.7364C27.2087 40.0454 28.4524 40.1836 30.4332 41.627L30.9707 42.0109C32.5062 43.1165 33.1202 43.4543 33.9187 43.8689L32.2298 46.2029C31.462 45.9572 30.3718 45.2201 29.2202 44.3756L28.7288 44.0224C26.9323 42.7172 26.0263 42.7019 24.9207 44.2221L24.1683 45.2508L24.199 45.2662ZM22.2489 43.8535L23.0628 42.7172C24.1069 41.2585 23.8919 40.2451 22.5407 39.2625C21.3737 38.4334 20.3143 38.4948 19.4237 39.7232L18.441 41.0896L22.2643 43.8382L22.2489 43.8535Z" fill="white"/>
<path d="M35.3323 35.6388C36.3918 36.5447 37.62 37.0361 38.7256 35.9919C39.7851 34.9785 39.5547 33.9497 38.6948 33.0437C37.7582 32.0612 36.7142 31.9384 34.5031 32.6599C31.5088 33.6426 29.8812 33.5505 28.1768 31.7541C26.3341 29.8194 26.3188 27.3165 28.4992 25.2435C31.2171 22.6639 33.6279 23.8616 35.148 25.3971L33.029 27.4086C32.3073 26.779 31.1557 25.9345 30.0655 26.9787C29.2056 27.7925 29.3591 28.7138 30.1422 29.5276C30.9714 30.3875 31.7392 30.4336 33.7814 29.7426C36.8985 28.6831 38.787 28.7292 40.7064 30.756C42.5029 32.6445 42.8254 35.3317 40.2764 37.7424C37.5125 40.3835 34.9791 39.4008 33.1826 37.681L35.3323 35.6388Z" fill="white"/>
<path fill-rule="evenodd" clip-rule="evenodd" d="M93.3682 31.3786C94.4506 31.7425 98.505 34.0499 99.6555 34.6636C109.046 39.6735 117.402 44.67 125.162 52.0675C133.736 60.2414 140.049 70.0047 140.175 82.2047C140.218 86.4142 140.181 90.6659 140.19 94.8899C140.259 101.649 140.29 108.409 140.282 115.169L140.31 127.788C140.313 129.97 140.335 132.196 140.29 134.378C140.277 134.99 140.246 135.317 139.841 135.747C139.41 136.204 139.049 136.256 138.389 136.296C136.597 136.405 134.714 136.367 132.915 136.367L123.726 136.362L94.4824 136.366L62.5527 136.368C61.0756 136.369 47.7301 136.84 47.4831 135.554C46.7563 131.767 47.0629 126.257 47.0711 122.225L47.0915 102.055L47.0927 88.0537C47.0835 85.4842 46.9743 82.0388 47.1506 79.5275C47.3794 76.2964 48.0453 73.1114 49.1301 70.0595C54.6425 54.716 72.1299 42.6273 85.9828 35.298C88.3224 34.0601 90.9986 32.4977 93.3682 31.3786ZM65.146 68.319C60.2966 73.6822 56.6255 77.3631 49.7658 80.164C49.9924 77.9656 50.3182 75.5093 50.9511 73.3769C55.246 58.9096 69.5635 48.3085 81.9891 40.9646C85.6858 38.7796 89.653 36.8461 93.3782 34.7572C111.513 43.3895 135.23 58.097 137.084 80.0852C129.384 77.4939 125.476 73.3184 119.783 67.8727C119.758 67.2977 119.776 66.9972 119.593 66.4439C119.026 65.734 117.922 65.8192 117.196 66.2738C116.93 66.4409 116.881 66.9252 116.877 67.2301C116.834 70.1575 116.861 73.0894 116.865 76.0181L116.748 91.9889C117.782 92.5992 118.832 93.1809 119.898 93.7337C120.075 90.4935 119.928 86.0336 119.912 82.7096C123.95 88.4581 130.641 93.2728 137.052 96.0562C137.068 97.9685 137.052 99.881 137.007 101.793C130.794 101.641 124.502 101.847 118.282 101.761C116.239 101.732 114.102 101.736 112.07 101.863C113.001 105.524 115.263 113.977 115.035 117.702C113.606 117.605 113.912 115.785 113.747 114.506C112.282 103.183 105.224 86.9006 93.2975 83.2078C92.0003 83.6141 90.7784 84.3399 89.6155 84.9828C79.2685 90.7028 75.4583 102.128 73.6775 113.115C73.4354 114.608 73.5289 116.777 73.1045 118.138L72.263 118.327L72.0849 118.169C71.9349 117.38 72.2006 116.067 72.2846 115.23C72.7567 110.526 73.7258 106.367 75.052 101.842C72.4402 101.687 69.3249 101.754 66.6691 101.757C61.5887 101.754 54.7633 101.549 49.838 101.832C49.9403 100.208 49.8502 97.8432 49.8361 96.1658C56.7375 93.478 60.4633 89.5764 65.1142 84.1755L65.1113 94.3837C66.6448 93.3364 68.5313 92.3319 70.1697 91.2831C70.3419 87.9864 70.1852 83.902 70.1255 80.5491C70.8941 81.6446 74.5867 86.055 75.7124 86.1012L75.8461 85.8353C75.6709 85.1596 73.567 83.2321 72.9262 82.5521C72.046 81.6181 71.0031 80.193 70.0923 79.3857L69.9984 75.1951C71.6486 77.1628 76.1151 82.102 78.2617 83.2791L78.5655 83.1487L78.6582 82.8677C78.1474 82.1265 75.6815 79.9741 74.9106 79.23C73.1375 77.5396 71.5007 75.7114 70.0157 73.7629C69.9996 72.4541 69.9768 71.2362 69.9005 69.9293C72.2623 72.873 77.0012 77.2845 80.747 78.6317C81.0862 78.7538 81.2079 78.7265 81.4555 78.5796C81.4147 77.9728 81.0671 77.8277 80.5434 77.5451C76.1917 75.1965 73.2162 72.2045 69.9063 68.5411L69.7742 66.1212C69.266 66.0682 67.1208 65.8204 67.0326 66.6084C66.8665 68.0903 66.9411 69.7516 66.9395 71.2594L66.9238 85.0965C66.9226 86.4859 67.1705 92.2237 66.5138 92.9682C65.4463 92.3482 66.9175 57.4925 65.8555 56.2296C65.819 56.2616 65.7811 56.2917 65.7463 56.3253C64.714 57.325 65.159 66.3749 65.146 68.319ZM93.6259 132.826C94.1274 133.164 132.964 132.964 136.866 133.102C135.704 132.783 134.778 132.368 133.665 131.923C122.441 127.433 111.174 122.999 99.8319 118.813C98.3628 118.27 97.0131 117.656 95.5099 117.201L93.7295 116.653C94.0125 117.27 94.256 118.253 94.1969 118.939L93.858 119.222C93.3631 119.145 93.5 119.242 93.2416 118.919C93.0672 118.047 93.2836 117.409 93.7295 116.653L91.7477 117.243L91.7691 117.336C91.2038 117.77 89.06 117.657 88.2546 117.795C81.2505 118.993 74.3589 120.535 67.3531 121.774C61.5424 122.802 55.6366 124.044 49.8553 125.233C49.806 124.487 49.8249 123.497 49.817 122.732C63.3555 120.644 78.1295 118.238 91.7477 117.243L93.7295 116.653L95.5099 117.201C97.0883 117.175 99.1986 118.142 100.824 118.556C113.213 121.711 125.265 126.142 137.272 130.555L137.426 130.612C137.417 131.791 137.394 132.969 137.356 134.147C126.27 134.356 114.584 134.158 103.431 134.157L50.0358 134.133C50.1212 133.096 50.0963 132.044 50.0912 131.003C56.3005 128.731 62.5496 126.569 68.8359 124.519C71.2961 123.695 87.9304 117.905 89.8494 118.014C89.6232 118.315 88.947 118.526 88.5629 118.683C76.4022 123.268 64.1361 128.388 51.9553 133.065C65.2311 132.881 78.9979 132.962 92.2923 133.023L92.644 128.606H95.0606C95.1203 130.045 95.2269 131.208 95.3893 132.641C94.7534 132.653 94.2228 132.617 93.6259 132.826ZM80.5993 117.229L78.7491 117.486C78.6152 104.06 80.3311 92.5 93.2363 85.8677C104.524 89.8376 109.058 106.643 109.159 117.215C108.481 117.175 107.802 117.131 107.124 117.084C106.62 110.561 105.929 104.642 103.134 98.6124C101.35 94.7642 98.3909 90.2555 94.2674 88.7273C91.5814 88.2819 88.8983 90.4956 87.2101 92.3555C81.3324 98.83 80.2667 108.891 80.5993 117.229ZM65.0694 75.2501C65.159 75.8447 65.1138 77.7727 65.1132 78.4669C60.9336 83.7394 56.1652 87.6013 49.9578 90.204C49.7842 89.2145 49.8288 87.4344 49.8253 86.3637C55.5838 84.281 61.1298 79.8802 65.0694 75.2501ZM119.411 118.418L117.304 118.362C116.919 112.12 117.599 105.235 125.249 104.384C131.956 103.297 136.253 112.604 135.519 118.13C135.386 119.13 135.568 120.126 134.79 120.821C134.27 120.893 134.503 120.941 134.063 120.709C133.965 115.617 133.72 110.505 129.061 107.314C123.032 104.103 119.274 108.898 119.167 114.665C119.141 116.08 119.221 117.021 119.411 118.418ZM137.057 122.218L137.027 124.432L111.832 119.743C108.114 119.086 104.788 118.406 101.035 117.88C100.069 117.715 99.1047 117.543 98.1415 117.362C99.6098 117.244 100.414 117.366 101.882 117.535C104.561 117.841 107.234 118.019 109.901 118.315C115.276 118.942 120.643 119.633 126.002 120.387C129.059 120.812 134.114 121.46 137.057 122.218ZM137.043 81.2466L137.003 85.1684C130.869 83.7356 123.92 77.1697 119.758 72.72C119.688 71.5553 119.715 70.274 119.716 69.099C120.786 70.0424 122.011 71.5486 123.123 72.5851C127.35 76.5259 131.56 79.4515 137.043 81.2466ZM65.1095 82.5815C60.6223 88.416 56.7011 92.0549 49.8722 95.0902C49.7848 94.4783 49.8327 92.0731 49.8337 91.3357C55.9093 89.1022 60.9715 84.9239 65.0722 79.9935C65.1464 80.4418 65.1103 82.046 65.1095 82.5815ZM94.0979 120.189C94.6356 120.757 94.4974 122.299 94.5476 123.114C93.7331 123.115 93.6891 123.25 93.1245 122.872C92.7736 122.155 93.0554 120.98 93.1612 120.115C93.4191 120.102 93.9583 120.041 94.0979 120.189ZM128.575 119.536C128.383 114.63 127.321 112.012 124.768 107.907C124.842 107.913 124.916 107.92 124.99 107.929C128.489 108.371 130.34 116.696 129.934 119.874C129.685 119.881 128.589 119.901 128.575 119.536ZM59.404 120.129C59.1185 120.466 58.9319 120.411 58.4227 120.526L58.0777 120.463C56.6923 117.675 58.7929 109.266 62.0667 107.908C62.1507 107.939 62.3116 108.046 62.396 108.097C62.1892 108.958 61.1643 110.039 60.7282 111.006C59.233 114.325 59.4934 116.778 59.404 120.129ZM137.066 91.3316C137.007 92.4331 137.04 93.7869 137.04 94.9119C131.968 92.8172 127.32 89.4018 123.527 85.4649C122.231 84.1194 121.09 82.6729 119.817 81.2959C119.784 80.422 119.792 79.4773 119.781 78.5967C123.653 83.6506 130.928 89.3345 137.066 91.3316ZM65.1688 70.0267C65.2369 70.9053 65.1397 72.8095 65.1148 73.7679C61.282 78.7304 55.6676 82.6401 50.0293 85.2505L49.8936 85.116C49.7479 84.4408 49.8156 82.0547 49.8223 81.2236C55.7338 79.0148 61.0157 74.6969 65.0276 69.8849L65.1688 70.0267ZM137.04 86.4014L137.025 90.3032C129.819 87.2154 124.746 83.2025 119.747 77.1035C119.678 76.2045 119.71 75.0576 119.71 74.1388C120.175 74.4567 121.333 75.8255 121.779 76.2915C126.101 80.8102 131.196 84.2213 137.04 86.4014ZM54.0599 120.966C53.8117 121.191 52.9064 121.269 52.5178 121.33C50.858 114.475 53.0704 105.284 61.3036 104.383C61.5977 104.352 61.8905 104.369 62.1829 104.402C69.9525 105.275 70.4379 112.753 69.9501 118.662C69.3194 118.681 68.9749 118.724 68.3583 118.815C68.929 112.773 67.3625 104.2 59.2954 106.821C58.6252 107.158 57.9996 107.578 57.433 108.069C54.6769 110.507 53.8343 114.028 53.8741 117.607C53.8867 118.745 54.138 119.805 54.0599 120.966ZM111.18 117.241C110.989 114.336 110.528 111.457 110.214 108.573C111.205 110.664 111.926 115.226 112.331 117.642C112.144 117.611 111.195 117.483 111.18 117.241ZM92.9721 124.14C93.2522 123.939 94.1851 124.03 94.592 124.038C94.8129 124.517 94.9182 126.948 94.9555 127.585L93.0308 127.574L92.8406 127.568L92.6772 127.394C92.7227 126.184 92.728 125.332 92.9721 124.14ZM75.3689 117.872C75.0997 115.959 76.4884 110.186 77.033 108.239C77.2178 108.77 76.7127 116.222 76.672 117.49C76.305 117.824 75.8848 117.805 75.3689 117.872Z" fill="white"/>
<path d="M85.6963 73.0752C91.4913 76.954 95.1627 76.748 100.92 73.0587C102.507 76.0377 103.099 78.266 105.139 81.4975C111.704 91.8975 119.788 96.9671 131.9 98.7832C133.099 98.9629 135.514 98.9476 136.264 99.7107C136.361 100.21 136.404 99.9893 136.186 100.402C135.756 100.448 135.324 100.476 134.891 100.488C131.881 100.547 128.808 100.427 125.796 100.518C123.401 100.59 121.978 100.501 119.798 99.392C114.385 96.6386 110.025 92.4126 105.655 88.2838C103.721 86.4623 101.713 84.7128 99.7809 82.8743C98.5569 81.7624 97.3205 80.6643 96.0719 79.5803C92.9971 80.3397 93.2968 80.5227 90.1271 79.6143C87.5029 82.2524 84.3531 84.7573 81.4357 87.5205C78.1726 90.6109 69.4141 99.436 64.9379 100.327C63.4425 100.625 52.1971 100.639 50.9513 100.391C50.7176 100.01 50.7327 99.9805 50.7388 99.5171C50.783 99.488 59.3811 97.8591 60.7251 97.4701C70.1507 94.7416 77.0994 88.3675 82.0787 80.0583C83.4562 77.7599 84.3959 75.2491 85.6963 73.0752Z" fill="white"/>
<path d="M115.615 55.9541L115.883 56.2858C116.125 57.378 116.035 61.2869 116.034 62.5574L116.026 74.6663L116.058 85.7546C116.061 87.0296 116.142 90.2445 115.999 91.4188L115.783 91.5842C115.659 91.5357 115.496 91.4846 115.392 91.3941C114.575 90.6834 114.929 82.95 114.942 81.3697C114.654 81.7332 114.36 82.091 114.058 82.4427C113.446 83.1536 110.848 86.0484 110.118 86.1033L110.009 85.7717C110.081 85.5806 114.222 80.9033 114.891 79.992L114.922 75.8235C113.741 77.4733 112.617 78.7226 111.198 80.154C110.375 80.9733 108.867 82.4531 107.894 83.1383C107.712 83.2669 107.462 83.1039 107.312 83.0234C107.339 82.2405 109.446 80.6455 110.083 80.0167C111.836 78.2621 113.449 76.3732 114.908 74.3672C114.927 73.1348 115.003 71.8342 115.057 70.5962C113.469 72.3915 106.972 79.1752 104.441 78.6132C105.099 77.5587 107.636 76.1208 108.768 75.2582C110.661 73.8152 113.728 71.0165 114.919 69.0085L114.997 68.874C115.236 65.7206 114.774 59.8211 115.184 56.4912C115.353 56.2801 115.497 56.1012 115.615 55.9541Z" fill="white"/>
<path d="M116.794 57.0907C120.836 57.2814 119.22 57.6213 121.862 59.9259C122.122 60.1529 124.607 60.0108 124.866 60.2774C124.47 60.7584 123.663 61.2026 123.109 61.55L124.43 63.1427L124.625 63.3631L124.434 63.5306C123.322 63.6052 120.948 63.1412 119.772 62.9399C119.586 63.0224 119.4 63.1035 119.212 63.1832C118.615 63.4371 118.003 63.76 117.389 63.5131C116.88 62.6106 116.266 58.0343 116.794 57.0907Z" fill="white"/>
<path d="M66.7717 57.1076C67.6565 57.3377 68.9901 57.0718 69.9357 57.4157C71.0754 57.8304 71.1514 59.6141 72.277 60.0569C73.1303 60.3925 74.2408 59.8653 75.158 60.1802L75.1506 60.4051C74.6587 60.9687 73.8879 61.4088 73.2471 61.8204C73.5391 62.286 73.8808 62.6921 74.2229 63.1221C74.5332 63.3656 74.4389 63.2148 74.5424 63.5699C73.4553 63.6486 71.2229 62.9853 70.1089 62.9968C69.6395 63.0016 68.5115 63.7256 67.7624 63.7146C67.197 62.9155 66.7004 58.2479 66.7717 57.1076Z" fill="white"/>
<path d="M110.214 108.573C111.205 110.664 111.926 115.226 112.332 117.642C112.144 117.611 111.196 117.483 111.18 117.241C110.989 114.336 110.528 111.457 110.214 108.573Z" fill="white"/>
<path d="M101.035 117.88C100.069 117.716 99.1045 117.543 98.1414 117.362C99.6097 117.244 100.414 117.366 101.882 117.535C101.588 117.632 101.285 117.705 101.035 117.88Z" fill="white"/>
</g>
</svg>
