<svg xmlns="http://www.w3.org/2000/svg" width="65" height="48" viewBox="0 0 65 48" fill="none">
  <g opacity="0.1" clip-path="url(#clip0_187_1085)">
    <path d="M64.9388 48.001C64.6644 47.9909 64.3916 47.9708 64.1172 47.9708C55.4347 47.9708 46.7523 47.9708 38.0682 47.9708H37.1872C37.172 47.7325 37.1466 47.5345 37.1466 47.3365C37.1466 37.9811 37.1449 28.6258 37.1567 19.2705C37.1601 16.6376 37.5091 14.055 38.5036 11.5916C40.1655 7.46682 43.2658 4.77349 47.2741 2.99807C50.703 1.4794 54.3318 0.729297 58.0471 0.392002C60.3375 0.185597 62.6399 0.128542 64.9388 0.00268555V5.90787C62.8804 5.87431 60.8492 6.08575 58.8704 6.66469C55.223 7.73195 52.6513 9.9336 51.5196 13.612C50.908 15.6005 50.8606 17.6427 50.9825 19.7017C51.0164 20.2673 51.2011 20.4284 51.772 20.425C55.9514 20.4015 60.1326 20.4133 64.3137 20.4099C64.5221 20.4099 64.7304 20.3763 64.9388 20.3579V48.001Z" fill="black"/>
    <path d="M27.7414 5.75289C26.0371 5.9744 24.3701 6.09522 22.7454 6.42077C17.2903 7.51153 14.0139 11.4064 13.8275 16.9273C13.797 17.8251 13.8343 18.7262 13.8529 19.6256C13.858 19.8539 13.9088 20.0804 13.9529 20.411H27.7567V47.935H0.0304944C0.0203296 47.7118 0.00169413 47.492 0.00169413 47.2721C0.00169413 38.2893 0.0050824 29.3082 0 20.3254C0 17.6354 0.189743 14.9706 1.06561 12.3998C2.52256 8.12403 5.4873 5.20919 9.52272 3.27771C12.7534 1.7322 16.1959 0.909934 19.7366 0.525652C22.1474 0.26387 24.5802 0.191712 27.0045 0.0373282C27.2332 0.0222254 27.4636 0.0356501 27.7448 0.0356501V5.75289H27.7414Z" fill="black"/>
  </g>
  <defs>
    <clipPath id="clip0_187_1085">
      <rect width="64.9412" height="48" fill="white"/>
    </clipPath>
  </defs>
</svg>