<svg xmlns="http://www.w3.org/2000/svg" width="22" height="22" viewBox="0 0 22 22" fill="none">
<g clip-path="url(#clip0_184_1382)">
<path d="M20.8181 19.4815L16.7857 15.472C17.8683 14.0411 18.4449 12.0996 18.4898 9.67044C18.3935 4.08336 15.275 0.986862 9.70079 0.950195C4.05962 0.985945 0.921875 4.26119 0.921875 9.66953C0.921875 15.3483 4.06237 18.3889 9.71179 18.4219C12.1217 18.4072 14.0559 17.848 15.4895 16.7673L19.5256 20.7814C20.0005 21.2324 20.5624 21.0481 20.8218 20.7777C21.1729 20.4129 21.1775 19.8381 20.8181 19.4815ZM2.75521 9.68603C2.84412 5.07061 5.11929 2.81195 9.69987 2.78353C14.2365 2.81286 16.5776 5.14028 16.6565 9.66953C16.5703 14.3629 14.3602 16.561 9.71179 16.5885C5.05787 16.561 2.84687 14.3684 2.75521 9.68603Z" fill="#75829D"/>
</g>
<defs>
<clipPath id="clip0_184_1382">
<rect width="22" height="22" fill="white"/>
</clipPath>
</defs>
</svg>