<svg xmlns="http://www.w3.org/2000/svg" width="24" height="23" viewBox="0 0 24 23" fill="none">
<path d="M18.5585 14.2664C18.264 14.5646 18.128 15.0047 18.1971 15.4234L19.2043 21.2917C19.2848 21.7927 19.0922 22.2924 18.6945 22.5799C18.3093 22.8781 17.7994 22.9139 17.3689 22.6753L12.3509 19.92C12.1685 19.8246 11.9759 19.7638 11.7844 19.7638H11.4773C11.364 19.7757 11.2632 19.8246 11.1714 19.8711L6.15227 22.6395C5.90301 22.7707 5.61976 22.8184 5.34784 22.7707C4.66805 22.6276 4.22731 21.9585 4.33948 21.2547L5.34784 15.3864C5.41582 14.9582 5.27986 14.5288 4.98642 14.2187L0.895181 10.0441C0.555283 9.68624 0.430654 9.17217 0.590406 8.69626C0.737695 8.22989 1.12178 7.884 1.59764 7.8017L7.22861 6.94172C7.65915 6.89401 8.03304 6.62087 8.22564 6.21534L10.7069 0.859886C10.7635 0.740611 10.8429 0.632071 10.9346 0.537844L11.0355 0.454351C11.0808 0.393521 11.1488 0.347003 11.2179 0.299293L11.3414 0.251583L11.534 0.168091H12.011C12.4415 0.215801 12.8154 0.488941 13.008 0.882549L15.5221 6.21534C15.7034 6.60895 16.0546 6.87135 16.4625 6.94172L22.0935 7.8017C22.5693 7.87326 22.967 8.21916 23.1245 8.69626C23.2718 9.17217 23.1472 9.69817 22.7959 10.0441L18.5585 14.2664Z" fill="#FBBF24"/>
</svg>