<svg width="40" height="14" viewBox="0 0 40 14" fill="none" xmlns="http://www.w3.org/2000/svg">
<path d="M19.7606 0.805926L17.1715 13.0446H14.0407L16.6302 0.805926H19.7606ZM32.9331 8.70845L34.5814 4.11243L35.5299 8.70845H32.9331ZM36.4262 13.0446H39.3222L36.7951 0.805926H34.1221C33.5215 0.805926 33.0147 1.1592 32.789 1.70383L28.0919 13.0446H31.3797L32.0325 11.217H36.0493L36.4262 13.0446ZM28.2551 9.04856C28.2685 5.81836 23.8376 5.64056 23.8682 4.19765C23.8774 3.758 24.2915 3.29161 25.1959 3.17192C25.6453 3.11265 26.8807 3.06733 28.2834 3.72003L28.8328 1.12472C28.0793 0.848148 27.1097 0.582031 25.9038 0.582031C22.8094 0.582031 20.6313 2.24574 20.6129 4.62801C20.5934 6.38972 22.1678 7.37284 23.3542 7.95853C24.5738 8.55855 24.9837 8.94281 24.9784 9.4793C24.9703 10.3009 24.0054 10.6627 23.1052 10.677C21.5308 10.7022 20.6172 10.2474 19.8889 9.90423L19.3216 12.5859C20.0529 12.9256 21.4032 13.2208 22.8041 13.2359C26.0927 13.2359 28.2444 11.5927 28.2551 9.04856ZM15.2868 0.805926L10.2143 13.0446H6.90419L4.40814 3.27728C4.25645 2.67571 4.12468 2.45569 3.66385 2.20197C2.91189 1.78943 1.66885 1.40168 0.575195 1.16152L0.649893 0.805926H5.97718C6.65597 0.805926 7.26696 1.26301 7.42095 2.05361L8.73946 9.1361L11.9974 0.805926H15.2868Z" fill="#1434CB"/>
</svg>
